G04 #@! TF.GenerationSoftware,KiCad,Pcbnew,(5.1.10)-1*
G04 #@! TF.CreationDate,2021-07-09T21:47:44+10:00*
G04 #@! TF.ProjectId,A600Keyboard_USB_Pico,41363030-4b65-4796-926f-6172645f5553,rev?*
G04 #@! TF.SameCoordinates,Original*
G04 #@! TF.FileFunction,Soldermask,Top*
G04 #@! TF.FilePolarity,Negative*
%FSLAX46Y46*%
G04 Gerber Fmt 4.6, Leading zero omitted, Abs format (unit mm)*
G04 Created by KiCad (PCBNEW (5.1.10)-1) date 2021-07-09 21:47:44*
%MOMM*%
%LPD*%
G01*
G04 APERTURE LIST*
%ADD10C,3.302000*%
%ADD11O,1.702000X1.702000*%
%ADD12C,1.402000*%
%ADD13O,1.802000X1.802000*%
%ADD14O,1.602000X1.602000*%
%ADD15O,1.902000X1.902000*%
%ADD16C,1.702000*%
G04 APERTURE END LIST*
D10*
X185674000Y-68580000D03*
D11*
X178308000Y-94742000D03*
X170688000Y-115062000D03*
X178308000Y-97282000D03*
X170688000Y-112522000D03*
X178308000Y-99822000D03*
X170688000Y-109982000D03*
X178308000Y-102362000D03*
X170688000Y-107442000D03*
X178308000Y-104902000D03*
X170688000Y-104902000D03*
X178308000Y-107442000D03*
X170688000Y-102362000D03*
X178308000Y-109982000D03*
X170688000Y-99822000D03*
X178308000Y-112522000D03*
X170688000Y-97282000D03*
X178308000Y-115062000D03*
G36*
G01*
X169837000Y-95542000D02*
X169837000Y-93942000D01*
G75*
G02*
X169888000Y-93891000I51000J0D01*
G01*
X171488000Y-93891000D01*
G75*
G02*
X171539000Y-93942000I0J-51000D01*
G01*
X171539000Y-95542000D01*
G75*
G02*
X171488000Y-95593000I-51000J0D01*
G01*
X169888000Y-95593000D01*
G75*
G02*
X169837000Y-95542000I0J51000D01*
G01*
G37*
D12*
X182706000Y-86739999D03*
X187706000Y-87989999D03*
X182706000Y-89239999D03*
X187706000Y-90489999D03*
X182706000Y-91739999D03*
X187706000Y-92989999D03*
X182706000Y-94239999D03*
X187706000Y-95490000D03*
X182706000Y-96740000D03*
X187706000Y-97990000D03*
X182706000Y-99240000D03*
X187706000Y-100490000D03*
X182706000Y-101740000D03*
X187706000Y-102990000D03*
X182706000Y-104240000D03*
X187706000Y-105490000D03*
X182706000Y-106740000D03*
X187706000Y-107990000D03*
X182706000Y-109240000D03*
G36*
G01*
X188356000Y-111191000D02*
X187056000Y-111191000D01*
G75*
G02*
X187005000Y-111140000I0J51000D01*
G01*
X187005000Y-109840000D01*
G75*
G02*
X187056000Y-109789000I51000J0D01*
G01*
X188356000Y-109789000D01*
G75*
G02*
X188407000Y-109840000I0J-51000D01*
G01*
X188407000Y-111140000D01*
G75*
G02*
X188356000Y-111191000I-51000J0D01*
G01*
G37*
X187706000Y-85489999D03*
X182706000Y-84239999D03*
X187706000Y-82989999D03*
X182706000Y-81739999D03*
X187706000Y-80489999D03*
X182706000Y-79239999D03*
X187706000Y-77989999D03*
X182706000Y-76739999D03*
X187706000Y-75489999D03*
X182706000Y-74239999D03*
D10*
X185674000Y-116332000D03*
D13*
X154940000Y-114011000D03*
G36*
G01*
X155790000Y-116712000D02*
X154090000Y-116712000D01*
G75*
G02*
X154039000Y-116661000I0J51000D01*
G01*
X154039000Y-113161000D01*
G75*
G02*
X154090000Y-113110000I51000J0D01*
G01*
X155790000Y-113110000D01*
G75*
G02*
X155841000Y-113161000I0J-51000D01*
G01*
X155841000Y-116661000D01*
G75*
G02*
X155790000Y-116712000I-51000J0D01*
G01*
G37*
G36*
G01*
X151499000Y-114861000D02*
X151499000Y-113161000D01*
G75*
G02*
X151550000Y-113110000I51000J0D01*
G01*
X153250000Y-113110000D01*
G75*
G02*
X153301000Y-113161000I0J-51000D01*
G01*
X153301000Y-114861000D01*
G75*
G02*
X153250000Y-114912000I-51000J0D01*
G01*
X151550000Y-114912000D01*
G75*
G02*
X151499000Y-114861000I0J51000D01*
G01*
G37*
G36*
G01*
X153250000Y-116712000D02*
X151550000Y-116712000D01*
G75*
G02*
X151499000Y-116661000I0J51000D01*
G01*
X151499000Y-113161000D01*
G75*
G02*
X151550000Y-113110000I51000J0D01*
G01*
X153250000Y-113110000D01*
G75*
G02*
X153301000Y-113161000I0J-51000D01*
G01*
X153301000Y-116661000D01*
G75*
G02*
X153250000Y-116712000I-51000J0D01*
G01*
G37*
X149860000Y-114011000D03*
G36*
G01*
X150710000Y-116712000D02*
X149010000Y-116712000D01*
G75*
G02*
X148959000Y-116661000I0J51000D01*
G01*
X148959000Y-113161000D01*
G75*
G02*
X149010000Y-113110000I51000J0D01*
G01*
X150710000Y-113110000D01*
G75*
G02*
X150761000Y-113161000I0J-51000D01*
G01*
X150761000Y-116661000D01*
G75*
G02*
X150710000Y-116712000I-51000J0D01*
G01*
G37*
D14*
X154825000Y-69141000D03*
X149975000Y-69141000D03*
D15*
X155125000Y-66111000D03*
X149675000Y-66111000D03*
G36*
G01*
X160389000Y-115091000D02*
X160389000Y-113391000D01*
G75*
G02*
X160440000Y-113340000I51000J0D01*
G01*
X163940000Y-113340000D01*
G75*
G02*
X163991000Y-113391000I0J-51000D01*
G01*
X163991000Y-115091000D01*
G75*
G02*
X163940000Y-115142000I-51000J0D01*
G01*
X160440000Y-115142000D01*
G75*
G02*
X160389000Y-115091000I0J51000D01*
G01*
G37*
G36*
G01*
X160389000Y-112551000D02*
X160389000Y-110851000D01*
G75*
G02*
X160440000Y-110800000I51000J0D01*
G01*
X163940000Y-110800000D01*
G75*
G02*
X163991000Y-110851000I0J-51000D01*
G01*
X163991000Y-112551000D01*
G75*
G02*
X163940000Y-112602000I-51000J0D01*
G01*
X160440000Y-112602000D01*
G75*
G02*
X160389000Y-112551000I0J51000D01*
G01*
G37*
G36*
G01*
X160389000Y-110011000D02*
X160389000Y-108311000D01*
G75*
G02*
X160440000Y-108260000I51000J0D01*
G01*
X163940000Y-108260000D01*
G75*
G02*
X163991000Y-108311000I0J-51000D01*
G01*
X163991000Y-110011000D01*
G75*
G02*
X163940000Y-110062000I-51000J0D01*
G01*
X160440000Y-110062000D01*
G75*
G02*
X160389000Y-110011000I0J51000D01*
G01*
G37*
G36*
G01*
X160389000Y-107471000D02*
X160389000Y-105771000D01*
G75*
G02*
X160440000Y-105720000I51000J0D01*
G01*
X163940000Y-105720000D01*
G75*
G02*
X163991000Y-105771000I0J-51000D01*
G01*
X163991000Y-107471000D01*
G75*
G02*
X163940000Y-107522000I-51000J0D01*
G01*
X160440000Y-107522000D01*
G75*
G02*
X160389000Y-107471000I0J51000D01*
G01*
G37*
G36*
G01*
X160389000Y-104931000D02*
X160389000Y-103231000D01*
G75*
G02*
X160440000Y-103180000I51000J0D01*
G01*
X163940000Y-103180000D01*
G75*
G02*
X163991000Y-103231000I0J-51000D01*
G01*
X163991000Y-104931000D01*
G75*
G02*
X163940000Y-104982000I-51000J0D01*
G01*
X160440000Y-104982000D01*
G75*
G02*
X160389000Y-104931000I0J51000D01*
G01*
G37*
G36*
G01*
X160389000Y-102391000D02*
X160389000Y-100691000D01*
G75*
G02*
X160440000Y-100640000I51000J0D01*
G01*
X163940000Y-100640000D01*
G75*
G02*
X163991000Y-100691000I0J-51000D01*
G01*
X163991000Y-102391000D01*
G75*
G02*
X163940000Y-102442000I-51000J0D01*
G01*
X160440000Y-102442000D01*
G75*
G02*
X160389000Y-102391000I0J51000D01*
G01*
G37*
G36*
G01*
X160389000Y-99851000D02*
X160389000Y-98151000D01*
G75*
G02*
X160440000Y-98100000I51000J0D01*
G01*
X163940000Y-98100000D01*
G75*
G02*
X163991000Y-98151000I0J-51000D01*
G01*
X163991000Y-99851000D01*
G75*
G02*
X163940000Y-99902000I-51000J0D01*
G01*
X160440000Y-99902000D01*
G75*
G02*
X160389000Y-99851000I0J51000D01*
G01*
G37*
G36*
G01*
X160389000Y-97311000D02*
X160389000Y-95611000D01*
G75*
G02*
X160440000Y-95560000I51000J0D01*
G01*
X163940000Y-95560000D01*
G75*
G02*
X163991000Y-95611000I0J-51000D01*
G01*
X163991000Y-97311000D01*
G75*
G02*
X163940000Y-97362000I-51000J0D01*
G01*
X160440000Y-97362000D01*
G75*
G02*
X160389000Y-97311000I0J51000D01*
G01*
G37*
G36*
G01*
X160389000Y-94771000D02*
X160389000Y-93071000D01*
G75*
G02*
X160440000Y-93020000I51000J0D01*
G01*
X163940000Y-93020000D01*
G75*
G02*
X163991000Y-93071000I0J-51000D01*
G01*
X163991000Y-94771000D01*
G75*
G02*
X163940000Y-94822000I-51000J0D01*
G01*
X160440000Y-94822000D01*
G75*
G02*
X160389000Y-94771000I0J51000D01*
G01*
G37*
G36*
G01*
X160389000Y-92231000D02*
X160389000Y-90531000D01*
G75*
G02*
X160440000Y-90480000I51000J0D01*
G01*
X163940000Y-90480000D01*
G75*
G02*
X163991000Y-90531000I0J-51000D01*
G01*
X163991000Y-92231000D01*
G75*
G02*
X163940000Y-92282000I-51000J0D01*
G01*
X160440000Y-92282000D01*
G75*
G02*
X160389000Y-92231000I0J51000D01*
G01*
G37*
G36*
G01*
X160389000Y-89691000D02*
X160389000Y-87991000D01*
G75*
G02*
X160440000Y-87940000I51000J0D01*
G01*
X163940000Y-87940000D01*
G75*
G02*
X163991000Y-87991000I0J-51000D01*
G01*
X163991000Y-89691000D01*
G75*
G02*
X163940000Y-89742000I-51000J0D01*
G01*
X160440000Y-89742000D01*
G75*
G02*
X160389000Y-89691000I0J51000D01*
G01*
G37*
G36*
G01*
X160389000Y-87151000D02*
X160389000Y-85451000D01*
G75*
G02*
X160440000Y-85400000I51000J0D01*
G01*
X163940000Y-85400000D01*
G75*
G02*
X163991000Y-85451000I0J-51000D01*
G01*
X163991000Y-87151000D01*
G75*
G02*
X163940000Y-87202000I-51000J0D01*
G01*
X160440000Y-87202000D01*
G75*
G02*
X160389000Y-87151000I0J51000D01*
G01*
G37*
G36*
G01*
X160389000Y-84611000D02*
X160389000Y-82911000D01*
G75*
G02*
X160440000Y-82860000I51000J0D01*
G01*
X163940000Y-82860000D01*
G75*
G02*
X163991000Y-82911000I0J-51000D01*
G01*
X163991000Y-84611000D01*
G75*
G02*
X163940000Y-84662000I-51000J0D01*
G01*
X160440000Y-84662000D01*
G75*
G02*
X160389000Y-84611000I0J51000D01*
G01*
G37*
G36*
G01*
X160389000Y-82071000D02*
X160389000Y-80371000D01*
G75*
G02*
X160440000Y-80320000I51000J0D01*
G01*
X163940000Y-80320000D01*
G75*
G02*
X163991000Y-80371000I0J-51000D01*
G01*
X163991000Y-82071000D01*
G75*
G02*
X163940000Y-82122000I-51000J0D01*
G01*
X160440000Y-82122000D01*
G75*
G02*
X160389000Y-82071000I0J51000D01*
G01*
G37*
G36*
G01*
X160389000Y-79531000D02*
X160389000Y-77831000D01*
G75*
G02*
X160440000Y-77780000I51000J0D01*
G01*
X163940000Y-77780000D01*
G75*
G02*
X163991000Y-77831000I0J-51000D01*
G01*
X163991000Y-79531000D01*
G75*
G02*
X163940000Y-79582000I-51000J0D01*
G01*
X160440000Y-79582000D01*
G75*
G02*
X160389000Y-79531000I0J51000D01*
G01*
G37*
G36*
G01*
X160389000Y-76991000D02*
X160389000Y-75291000D01*
G75*
G02*
X160440000Y-75240000I51000J0D01*
G01*
X163940000Y-75240000D01*
G75*
G02*
X163991000Y-75291000I0J-51000D01*
G01*
X163991000Y-76991000D01*
G75*
G02*
X163940000Y-77042000I-51000J0D01*
G01*
X160440000Y-77042000D01*
G75*
G02*
X160389000Y-76991000I0J51000D01*
G01*
G37*
G36*
G01*
X160389000Y-74451000D02*
X160389000Y-72751000D01*
G75*
G02*
X160440000Y-72700000I51000J0D01*
G01*
X163940000Y-72700000D01*
G75*
G02*
X163991000Y-72751000I0J-51000D01*
G01*
X163991000Y-74451000D01*
G75*
G02*
X163940000Y-74502000I-51000J0D01*
G01*
X160440000Y-74502000D01*
G75*
G02*
X160389000Y-74451000I0J51000D01*
G01*
G37*
G36*
G01*
X160389000Y-71911000D02*
X160389000Y-70211000D01*
G75*
G02*
X160440000Y-70160000I51000J0D01*
G01*
X163940000Y-70160000D01*
G75*
G02*
X163991000Y-70211000I0J-51000D01*
G01*
X163991000Y-71911000D01*
G75*
G02*
X163940000Y-71962000I-51000J0D01*
G01*
X160440000Y-71962000D01*
G75*
G02*
X160389000Y-71911000I0J51000D01*
G01*
G37*
G36*
G01*
X160389000Y-69371000D02*
X160389000Y-67671000D01*
G75*
G02*
X160440000Y-67620000I51000J0D01*
G01*
X163940000Y-67620000D01*
G75*
G02*
X163991000Y-67671000I0J-51000D01*
G01*
X163991000Y-69371000D01*
G75*
G02*
X163940000Y-69422000I-51000J0D01*
G01*
X160440000Y-69422000D01*
G75*
G02*
X160389000Y-69371000I0J51000D01*
G01*
G37*
G36*
G01*
X160389000Y-66831000D02*
X160389000Y-65131000D01*
G75*
G02*
X160440000Y-65080000I51000J0D01*
G01*
X163940000Y-65080000D01*
G75*
G02*
X163991000Y-65131000I0J-51000D01*
G01*
X163991000Y-66831000D01*
G75*
G02*
X163940000Y-66882000I-51000J0D01*
G01*
X160440000Y-66882000D01*
G75*
G02*
X160389000Y-66831000I0J51000D01*
G01*
G37*
G36*
G01*
X140809000Y-115091000D02*
X140809000Y-113391000D01*
G75*
G02*
X140860000Y-113340000I51000J0D01*
G01*
X144360000Y-113340000D01*
G75*
G02*
X144411000Y-113391000I0J-51000D01*
G01*
X144411000Y-115091000D01*
G75*
G02*
X144360000Y-115142000I-51000J0D01*
G01*
X140860000Y-115142000D01*
G75*
G02*
X140809000Y-115091000I0J51000D01*
G01*
G37*
G36*
G01*
X140809000Y-112551000D02*
X140809000Y-110851000D01*
G75*
G02*
X140860000Y-110800000I51000J0D01*
G01*
X144360000Y-110800000D01*
G75*
G02*
X144411000Y-110851000I0J-51000D01*
G01*
X144411000Y-112551000D01*
G75*
G02*
X144360000Y-112602000I-51000J0D01*
G01*
X140860000Y-112602000D01*
G75*
G02*
X140809000Y-112551000I0J51000D01*
G01*
G37*
G36*
G01*
X140809000Y-110011000D02*
X140809000Y-108311000D01*
G75*
G02*
X140860000Y-108260000I51000J0D01*
G01*
X144360000Y-108260000D01*
G75*
G02*
X144411000Y-108311000I0J-51000D01*
G01*
X144411000Y-110011000D01*
G75*
G02*
X144360000Y-110062000I-51000J0D01*
G01*
X140860000Y-110062000D01*
G75*
G02*
X140809000Y-110011000I0J51000D01*
G01*
G37*
G36*
G01*
X140809000Y-107471000D02*
X140809000Y-105771000D01*
G75*
G02*
X140860000Y-105720000I51000J0D01*
G01*
X144360000Y-105720000D01*
G75*
G02*
X144411000Y-105771000I0J-51000D01*
G01*
X144411000Y-107471000D01*
G75*
G02*
X144360000Y-107522000I-51000J0D01*
G01*
X140860000Y-107522000D01*
G75*
G02*
X140809000Y-107471000I0J51000D01*
G01*
G37*
G36*
G01*
X140809000Y-104931000D02*
X140809000Y-103231000D01*
G75*
G02*
X140860000Y-103180000I51000J0D01*
G01*
X144360000Y-103180000D01*
G75*
G02*
X144411000Y-103231000I0J-51000D01*
G01*
X144411000Y-104931000D01*
G75*
G02*
X144360000Y-104982000I-51000J0D01*
G01*
X140860000Y-104982000D01*
G75*
G02*
X140809000Y-104931000I0J51000D01*
G01*
G37*
G36*
G01*
X140809000Y-102391000D02*
X140809000Y-100691000D01*
G75*
G02*
X140860000Y-100640000I51000J0D01*
G01*
X144360000Y-100640000D01*
G75*
G02*
X144411000Y-100691000I0J-51000D01*
G01*
X144411000Y-102391000D01*
G75*
G02*
X144360000Y-102442000I-51000J0D01*
G01*
X140860000Y-102442000D01*
G75*
G02*
X140809000Y-102391000I0J51000D01*
G01*
G37*
G36*
G01*
X140809000Y-99851000D02*
X140809000Y-98151000D01*
G75*
G02*
X140860000Y-98100000I51000J0D01*
G01*
X144360000Y-98100000D01*
G75*
G02*
X144411000Y-98151000I0J-51000D01*
G01*
X144411000Y-99851000D01*
G75*
G02*
X144360000Y-99902000I-51000J0D01*
G01*
X140860000Y-99902000D01*
G75*
G02*
X140809000Y-99851000I0J51000D01*
G01*
G37*
G36*
G01*
X140809000Y-97311000D02*
X140809000Y-95611000D01*
G75*
G02*
X140860000Y-95560000I51000J0D01*
G01*
X144360000Y-95560000D01*
G75*
G02*
X144411000Y-95611000I0J-51000D01*
G01*
X144411000Y-97311000D01*
G75*
G02*
X144360000Y-97362000I-51000J0D01*
G01*
X140860000Y-97362000D01*
G75*
G02*
X140809000Y-97311000I0J51000D01*
G01*
G37*
G36*
G01*
X140809000Y-94771000D02*
X140809000Y-93071000D01*
G75*
G02*
X140860000Y-93020000I51000J0D01*
G01*
X144360000Y-93020000D01*
G75*
G02*
X144411000Y-93071000I0J-51000D01*
G01*
X144411000Y-94771000D01*
G75*
G02*
X144360000Y-94822000I-51000J0D01*
G01*
X140860000Y-94822000D01*
G75*
G02*
X140809000Y-94771000I0J51000D01*
G01*
G37*
G36*
G01*
X140809000Y-92231000D02*
X140809000Y-90531000D01*
G75*
G02*
X140860000Y-90480000I51000J0D01*
G01*
X144360000Y-90480000D01*
G75*
G02*
X144411000Y-90531000I0J-51000D01*
G01*
X144411000Y-92231000D01*
G75*
G02*
X144360000Y-92282000I-51000J0D01*
G01*
X140860000Y-92282000D01*
G75*
G02*
X140809000Y-92231000I0J51000D01*
G01*
G37*
G36*
G01*
X140809000Y-89691000D02*
X140809000Y-87991000D01*
G75*
G02*
X140860000Y-87940000I51000J0D01*
G01*
X144360000Y-87940000D01*
G75*
G02*
X144411000Y-87991000I0J-51000D01*
G01*
X144411000Y-89691000D01*
G75*
G02*
X144360000Y-89742000I-51000J0D01*
G01*
X140860000Y-89742000D01*
G75*
G02*
X140809000Y-89691000I0J51000D01*
G01*
G37*
G36*
G01*
X140809000Y-87151000D02*
X140809000Y-85451000D01*
G75*
G02*
X140860000Y-85400000I51000J0D01*
G01*
X144360000Y-85400000D01*
G75*
G02*
X144411000Y-85451000I0J-51000D01*
G01*
X144411000Y-87151000D01*
G75*
G02*
X144360000Y-87202000I-51000J0D01*
G01*
X140860000Y-87202000D01*
G75*
G02*
X140809000Y-87151000I0J51000D01*
G01*
G37*
G36*
G01*
X140809000Y-84611000D02*
X140809000Y-82911000D01*
G75*
G02*
X140860000Y-82860000I51000J0D01*
G01*
X144360000Y-82860000D01*
G75*
G02*
X144411000Y-82911000I0J-51000D01*
G01*
X144411000Y-84611000D01*
G75*
G02*
X144360000Y-84662000I-51000J0D01*
G01*
X140860000Y-84662000D01*
G75*
G02*
X140809000Y-84611000I0J51000D01*
G01*
G37*
G36*
G01*
X140809000Y-82071000D02*
X140809000Y-80371000D01*
G75*
G02*
X140860000Y-80320000I51000J0D01*
G01*
X144360000Y-80320000D01*
G75*
G02*
X144411000Y-80371000I0J-51000D01*
G01*
X144411000Y-82071000D01*
G75*
G02*
X144360000Y-82122000I-51000J0D01*
G01*
X140860000Y-82122000D01*
G75*
G02*
X140809000Y-82071000I0J51000D01*
G01*
G37*
G36*
G01*
X140809000Y-79531000D02*
X140809000Y-77831000D01*
G75*
G02*
X140860000Y-77780000I51000J0D01*
G01*
X144360000Y-77780000D01*
G75*
G02*
X144411000Y-77831000I0J-51000D01*
G01*
X144411000Y-79531000D01*
G75*
G02*
X144360000Y-79582000I-51000J0D01*
G01*
X140860000Y-79582000D01*
G75*
G02*
X140809000Y-79531000I0J51000D01*
G01*
G37*
G36*
G01*
X140809000Y-76991000D02*
X140809000Y-75291000D01*
G75*
G02*
X140860000Y-75240000I51000J0D01*
G01*
X144360000Y-75240000D01*
G75*
G02*
X144411000Y-75291000I0J-51000D01*
G01*
X144411000Y-76991000D01*
G75*
G02*
X144360000Y-77042000I-51000J0D01*
G01*
X140860000Y-77042000D01*
G75*
G02*
X140809000Y-76991000I0J51000D01*
G01*
G37*
G36*
G01*
X140809000Y-74451000D02*
X140809000Y-72751000D01*
G75*
G02*
X140860000Y-72700000I51000J0D01*
G01*
X144360000Y-72700000D01*
G75*
G02*
X144411000Y-72751000I0J-51000D01*
G01*
X144411000Y-74451000D01*
G75*
G02*
X144360000Y-74502000I-51000J0D01*
G01*
X140860000Y-74502000D01*
G75*
G02*
X140809000Y-74451000I0J51000D01*
G01*
G37*
G36*
G01*
X140809000Y-71911000D02*
X140809000Y-70211000D01*
G75*
G02*
X140860000Y-70160000I51000J0D01*
G01*
X144360000Y-70160000D01*
G75*
G02*
X144411000Y-70211000I0J-51000D01*
G01*
X144411000Y-71911000D01*
G75*
G02*
X144360000Y-71962000I-51000J0D01*
G01*
X140860000Y-71962000D01*
G75*
G02*
X140809000Y-71911000I0J51000D01*
G01*
G37*
G36*
G01*
X140809000Y-69371000D02*
X140809000Y-67671000D01*
G75*
G02*
X140860000Y-67620000I51000J0D01*
G01*
X144360000Y-67620000D01*
G75*
G02*
X144411000Y-67671000I0J-51000D01*
G01*
X144411000Y-69371000D01*
G75*
G02*
X144360000Y-69422000I-51000J0D01*
G01*
X140860000Y-69422000D01*
G75*
G02*
X140809000Y-69371000I0J51000D01*
G01*
G37*
G36*
G01*
X140809000Y-66831000D02*
X140809000Y-65131000D01*
G75*
G02*
X140860000Y-65080000I51000J0D01*
G01*
X144360000Y-65080000D01*
G75*
G02*
X144411000Y-65131000I0J-51000D01*
G01*
X144411000Y-66831000D01*
G75*
G02*
X144360000Y-66882000I-51000J0D01*
G01*
X140860000Y-66882000D01*
G75*
G02*
X140809000Y-66831000I0J51000D01*
G01*
G37*
D13*
X161290000Y-65981000D03*
X161290000Y-68521000D03*
G36*
G01*
X160389000Y-71911000D02*
X160389000Y-70211000D01*
G75*
G02*
X160440000Y-70160000I51000J0D01*
G01*
X162140000Y-70160000D01*
G75*
G02*
X162191000Y-70211000I0J-51000D01*
G01*
X162191000Y-71911000D01*
G75*
G02*
X162140000Y-71962000I-51000J0D01*
G01*
X160440000Y-71962000D01*
G75*
G02*
X160389000Y-71911000I0J51000D01*
G01*
G37*
X161290000Y-73601000D03*
X161290000Y-76141000D03*
X161290000Y-78681000D03*
X161290000Y-81221000D03*
G36*
G01*
X160389000Y-84611000D02*
X160389000Y-82911000D01*
G75*
G02*
X160440000Y-82860000I51000J0D01*
G01*
X162140000Y-82860000D01*
G75*
G02*
X162191000Y-82911000I0J-51000D01*
G01*
X162191000Y-84611000D01*
G75*
G02*
X162140000Y-84662000I-51000J0D01*
G01*
X160440000Y-84662000D01*
G75*
G02*
X160389000Y-84611000I0J51000D01*
G01*
G37*
X161290000Y-86301000D03*
X161290000Y-88841000D03*
X161290000Y-91381000D03*
X161290000Y-93921000D03*
G36*
G01*
X160389000Y-97311000D02*
X160389000Y-95611000D01*
G75*
G02*
X160440000Y-95560000I51000J0D01*
G01*
X162140000Y-95560000D01*
G75*
G02*
X162191000Y-95611000I0J-51000D01*
G01*
X162191000Y-97311000D01*
G75*
G02*
X162140000Y-97362000I-51000J0D01*
G01*
X160440000Y-97362000D01*
G75*
G02*
X160389000Y-97311000I0J51000D01*
G01*
G37*
X161290000Y-99001000D03*
X161290000Y-101541000D03*
X161290000Y-104081000D03*
X161290000Y-106621000D03*
G36*
G01*
X160389000Y-110011000D02*
X160389000Y-108311000D01*
G75*
G02*
X160440000Y-108260000I51000J0D01*
G01*
X162140000Y-108260000D01*
G75*
G02*
X162191000Y-108311000I0J-51000D01*
G01*
X162191000Y-110011000D01*
G75*
G02*
X162140000Y-110062000I-51000J0D01*
G01*
X160440000Y-110062000D01*
G75*
G02*
X160389000Y-110011000I0J51000D01*
G01*
G37*
X161290000Y-111701000D03*
X161290000Y-114241000D03*
X143510000Y-114241000D03*
X143510000Y-111701000D03*
G36*
G01*
X142609000Y-110011000D02*
X142609000Y-108311000D01*
G75*
G02*
X142660000Y-108260000I51000J0D01*
G01*
X144360000Y-108260000D01*
G75*
G02*
X144411000Y-108311000I0J-51000D01*
G01*
X144411000Y-110011000D01*
G75*
G02*
X144360000Y-110062000I-51000J0D01*
G01*
X142660000Y-110062000D01*
G75*
G02*
X142609000Y-110011000I0J51000D01*
G01*
G37*
X143510000Y-106621000D03*
X143510000Y-104081000D03*
X143510000Y-101541000D03*
X143510000Y-99001000D03*
G36*
G01*
X142609000Y-97311000D02*
X142609000Y-95611000D01*
G75*
G02*
X142660000Y-95560000I51000J0D01*
G01*
X144360000Y-95560000D01*
G75*
G02*
X144411000Y-95611000I0J-51000D01*
G01*
X144411000Y-97311000D01*
G75*
G02*
X144360000Y-97362000I-51000J0D01*
G01*
X142660000Y-97362000D01*
G75*
G02*
X142609000Y-97311000I0J51000D01*
G01*
G37*
X143510000Y-93921000D03*
X143510000Y-91381000D03*
X143510000Y-88841000D03*
X143510000Y-86301000D03*
G36*
G01*
X142609000Y-84611000D02*
X142609000Y-82911000D01*
G75*
G02*
X142660000Y-82860000I51000J0D01*
G01*
X144360000Y-82860000D01*
G75*
G02*
X144411000Y-82911000I0J-51000D01*
G01*
X144411000Y-84611000D01*
G75*
G02*
X144360000Y-84662000I-51000J0D01*
G01*
X142660000Y-84662000D01*
G75*
G02*
X142609000Y-84611000I0J51000D01*
G01*
G37*
X143510000Y-81221000D03*
X143510000Y-78681000D03*
X143510000Y-76141000D03*
X143510000Y-73601000D03*
G36*
G01*
X142609000Y-71911000D02*
X142609000Y-70211000D01*
G75*
G02*
X142660000Y-70160000I51000J0D01*
G01*
X144360000Y-70160000D01*
G75*
G02*
X144411000Y-70211000I0J-51000D01*
G01*
X144411000Y-71911000D01*
G75*
G02*
X144360000Y-71962000I-51000J0D01*
G01*
X142660000Y-71962000D01*
G75*
G02*
X142609000Y-71911000I0J51000D01*
G01*
G37*
X143510000Y-68521000D03*
X143510000Y-65981000D03*
D11*
X179070000Y-84836000D03*
D16*
X168910000Y-84836000D03*
D11*
X179070000Y-89408000D03*
D16*
X168910000Y-89408000D03*
D10*
X136398000Y-68580000D03*
X136398000Y-116586000D03*
D13*
X177800000Y-79756000D03*
X175260000Y-79756000D03*
X172720000Y-79756000D03*
G36*
G01*
X171030000Y-80657000D02*
X169330000Y-80657000D01*
G75*
G02*
X169279000Y-80606000I0J51000D01*
G01*
X169279000Y-78906000D01*
G75*
G02*
X169330000Y-78855000I51000J0D01*
G01*
X171030000Y-78855000D01*
G75*
G02*
X171081000Y-78906000I0J-51000D01*
G01*
X171081000Y-80606000D01*
G75*
G02*
X171030000Y-80657000I-51000J0D01*
G01*
G37*
M02*
