G04 #@! TF.GenerationSoftware,KiCad,Pcbnew,(5.1.10)-1*
G04 #@! TF.CreationDate,2021-07-09T21:47:44+10:00*
G04 #@! TF.ProjectId,A600Keyboard_USB_Pico,41363030-4b65-4796-926f-6172645f5553,rev?*
G04 #@! TF.SameCoordinates,Original*
G04 #@! TF.FileFunction,Copper,L2,Bot*
G04 #@! TF.FilePolarity,Positive*
%FSLAX46Y46*%
G04 Gerber Fmt 4.6, Leading zero omitted, Abs format (unit mm)*
G04 Created by KiCad (PCBNEW (5.1.10)-1) date 2021-07-09 21:47:44*
%MOMM*%
%LPD*%
G01*
G04 APERTURE LIST*
G04 #@! TA.AperFunction,ComponentPad*
%ADD10O,1.600000X1.600000*%
G04 #@! TD*
G04 #@! TA.AperFunction,ComponentPad*
%ADD11R,1.600000X1.600000*%
G04 #@! TD*
G04 #@! TA.AperFunction,ComponentPad*
%ADD12C,1.300000*%
G04 #@! TD*
G04 #@! TA.AperFunction,ComponentPad*
%ADD13R,1.300000X1.300000*%
G04 #@! TD*
G04 #@! TA.AperFunction,ComponentPad*
%ADD14O,1.700000X1.700000*%
G04 #@! TD*
G04 #@! TA.AperFunction,ComponentPad*
%ADD15R,1.700000X1.700000*%
G04 #@! TD*
G04 #@! TA.AperFunction,ComponentPad*
%ADD16C,1.600000*%
G04 #@! TD*
G04 #@! TA.AperFunction,Conductor*
%ADD17C,0.250000*%
G04 #@! TD*
G04 #@! TA.AperFunction,Conductor*
%ADD18C,0.254000*%
G04 #@! TD*
G04 #@! TA.AperFunction,Conductor*
%ADD19C,0.100000*%
G04 #@! TD*
G04 APERTURE END LIST*
D10*
X178308000Y-94742000D03*
X170688000Y-115062000D03*
X178308000Y-97282000D03*
X170688000Y-112522000D03*
X178308000Y-99822000D03*
X170688000Y-109982000D03*
X178308000Y-102362000D03*
X170688000Y-107442000D03*
X178308000Y-104902000D03*
X170688000Y-104902000D03*
X178308000Y-107442000D03*
X170688000Y-102362000D03*
X178308000Y-109982000D03*
X170688000Y-99822000D03*
X178308000Y-112522000D03*
X170688000Y-97282000D03*
X178308000Y-115062000D03*
D11*
X170688000Y-94742000D03*
D12*
X182706000Y-86739999D03*
X187706000Y-87989999D03*
X182706000Y-89239999D03*
X187706000Y-90489999D03*
X182706000Y-91739999D03*
X187706000Y-92989999D03*
X182706000Y-94239999D03*
X187706000Y-95490000D03*
X182706000Y-96740000D03*
X187706000Y-97990000D03*
X182706000Y-99240000D03*
X187706000Y-100490000D03*
X182706000Y-101740000D03*
X187706000Y-102990000D03*
X182706000Y-104240000D03*
X187706000Y-105490000D03*
X182706000Y-106740000D03*
X187706000Y-107990000D03*
X182706000Y-109240000D03*
D13*
X187706000Y-110490000D03*
D12*
X187706000Y-85489999D03*
X182706000Y-84239999D03*
X187706000Y-82989999D03*
X182706000Y-81739999D03*
X187706000Y-80489999D03*
X182706000Y-79239999D03*
X187706000Y-77989999D03*
X182706000Y-76739999D03*
X187706000Y-75489999D03*
X182706000Y-74239999D03*
D14*
X154940000Y-114011000D03*
D15*
X152400000Y-114011000D03*
D14*
X149860000Y-114011000D03*
X161290000Y-65981000D03*
X161290000Y-68521000D03*
D15*
X161290000Y-71061000D03*
D14*
X161290000Y-73601000D03*
X161290000Y-76141000D03*
X161290000Y-78681000D03*
X161290000Y-81221000D03*
D15*
X161290000Y-83761000D03*
D14*
X161290000Y-86301000D03*
X161290000Y-88841000D03*
X161290000Y-91381000D03*
X161290000Y-93921000D03*
D15*
X161290000Y-96461000D03*
D14*
X161290000Y-99001000D03*
X161290000Y-101541000D03*
X161290000Y-104081000D03*
X161290000Y-106621000D03*
D15*
X161290000Y-109161000D03*
D14*
X161290000Y-111701000D03*
X161290000Y-114241000D03*
X143510000Y-114241000D03*
X143510000Y-111701000D03*
D15*
X143510000Y-109161000D03*
D14*
X143510000Y-106621000D03*
X143510000Y-104081000D03*
X143510000Y-101541000D03*
X143510000Y-99001000D03*
D15*
X143510000Y-96461000D03*
D14*
X143510000Y-93921000D03*
X143510000Y-91381000D03*
X143510000Y-88841000D03*
X143510000Y-86301000D03*
D15*
X143510000Y-83761000D03*
D14*
X143510000Y-81221000D03*
X143510000Y-78681000D03*
X143510000Y-76141000D03*
X143510000Y-73601000D03*
D15*
X143510000Y-71061000D03*
D14*
X143510000Y-68521000D03*
X143510000Y-65981000D03*
D10*
X179070000Y-84836000D03*
D16*
X168910000Y-84836000D03*
D10*
X179070000Y-89408000D03*
D16*
X168910000Y-89408000D03*
D14*
X177800000Y-79756000D03*
X175260000Y-79756000D03*
X172720000Y-79756000D03*
D15*
X170180000Y-79756000D03*
D17*
X182706000Y-87437002D02*
X182706000Y-86485999D01*
X179610001Y-90533001D02*
X182706000Y-87437002D01*
X172711997Y-90533001D02*
X179610001Y-90533001D01*
X163068997Y-100176001D02*
X172711997Y-90533001D01*
X160628001Y-100176001D02*
X163068997Y-100176001D01*
X159453000Y-99001000D02*
X160628001Y-100176001D01*
X143510000Y-99001000D02*
X159453000Y-99001000D01*
X182398999Y-88985999D02*
X182706000Y-88985999D01*
X175517997Y-95867001D02*
X182398999Y-88985999D01*
X170437997Y-95867001D02*
X175517997Y-95867001D01*
X164763998Y-101541000D02*
X170437997Y-95867001D01*
X161290000Y-101541000D02*
X164763998Y-101541000D01*
X178308000Y-109982000D02*
X178308000Y-109440998D01*
X188174001Y-96465001D02*
X188681001Y-95958001D01*
X187787997Y-96465001D02*
X188174001Y-96465001D01*
X186730999Y-97521999D02*
X187787997Y-96465001D01*
X186730999Y-101658003D02*
X186730999Y-97521999D01*
X183174001Y-105215001D02*
X186730999Y-101658003D01*
X188681001Y-95958001D02*
X188681001Y-91465000D01*
X182787997Y-105215001D02*
X183174001Y-105215001D01*
X188681001Y-91465000D02*
X187706000Y-90489999D01*
X180574999Y-107427999D02*
X182787997Y-105215001D01*
X180574999Y-107715001D02*
X180574999Y-107427999D01*
X178308000Y-109982000D02*
X180574999Y-107715001D01*
X178057997Y-95867001D02*
X178848001Y-95867001D01*
X182706000Y-92009002D02*
X182706000Y-91485999D01*
X175517997Y-98407001D02*
X178057997Y-95867001D01*
X166128997Y-102716001D02*
X170437997Y-98407001D01*
X178848001Y-95867001D02*
X182706000Y-92009002D01*
X170437997Y-98407001D02*
X175517997Y-98407001D01*
X144685001Y-102716001D02*
X166128997Y-102716001D01*
X143510000Y-101541000D02*
X144685001Y-102716001D01*
X185480999Y-95215000D02*
X187706000Y-92989999D01*
X179595997Y-98407001D02*
X182787998Y-95215000D01*
X173614407Y-100947001D02*
X176154407Y-98407001D01*
X176154407Y-98407001D02*
X179595997Y-98407001D01*
X170147999Y-100947001D02*
X173614407Y-100947001D01*
X167014000Y-104081000D02*
X170147999Y-100947001D01*
X182787998Y-95215000D02*
X185480999Y-95215000D01*
X161290000Y-104081000D02*
X167014000Y-104081000D01*
X187706000Y-95429002D02*
X187706000Y-95236000D01*
X183120589Y-100215001D02*
X187706000Y-95629590D01*
X182787997Y-100215001D02*
X183120589Y-100215001D01*
X187706000Y-95629590D02*
X187706000Y-95490000D01*
X179515997Y-103487001D02*
X182787997Y-100215001D01*
X175517997Y-106027001D02*
X178057997Y-103487001D01*
X170437997Y-106027001D02*
X175517997Y-106027001D01*
X178057997Y-103487001D02*
X179515997Y-103487001D01*
X169843998Y-106621000D02*
X170437997Y-106027001D01*
X161290000Y-106621000D02*
X169843998Y-106621000D01*
X182706000Y-97089002D02*
X182706000Y-96486000D01*
X178848001Y-100947001D02*
X182706000Y-97089002D01*
X178057997Y-100947001D02*
X178848001Y-100947001D01*
X168668997Y-105256001D02*
X170437997Y-103487001D01*
X170437997Y-103487001D02*
X175517997Y-103487001D01*
X160628001Y-105256001D02*
X168668997Y-105256001D01*
X159453000Y-104081000D02*
X160628001Y-105256001D01*
X175517997Y-103487001D02*
X178057997Y-100947001D01*
X143510000Y-104081000D02*
X159453000Y-104081000D01*
X178848001Y-106027001D02*
X182706000Y-102169002D01*
X178057997Y-106027001D02*
X178848001Y-106027001D01*
X175517997Y-108567001D02*
X178057997Y-106027001D01*
X182706000Y-102169002D02*
X182706000Y-101486000D01*
X170147999Y-108567001D02*
X175517997Y-108567001D01*
X169376999Y-107796001D02*
X170147999Y-108567001D01*
X144685001Y-107796001D02*
X169376999Y-107796001D01*
X143510000Y-106621000D02*
X144685001Y-107796001D01*
X182706000Y-103986000D02*
X180594000Y-106098000D01*
X179652000Y-106098000D02*
X178308000Y-107442000D01*
X180594000Y-106098000D02*
X179652000Y-106098000D01*
X180730998Y-85961001D02*
X182706000Y-83985999D01*
X176011177Y-85961001D02*
X180730998Y-85961001D01*
X166876177Y-95096001D02*
X176011177Y-85961001D01*
X144685001Y-95096001D02*
X166876177Y-95096001D01*
X143510000Y-93921000D02*
X144685001Y-95096001D01*
X161290000Y-99001000D02*
X161739000Y-99001000D01*
X185480999Y-85215000D02*
X187706000Y-82989999D01*
X180372997Y-87630000D02*
X182787997Y-85215000D01*
X174978588Y-87630000D02*
X180372997Y-87630000D01*
X163607588Y-99001000D02*
X174978588Y-87630000D01*
X182787997Y-85215000D02*
X185480999Y-85215000D01*
X161290000Y-99001000D02*
X163607588Y-99001000D01*
X144874999Y-92745999D02*
X165572001Y-92745999D01*
X143510000Y-91381000D02*
X144874999Y-92745999D01*
X169005358Y-91694000D02*
X179213359Y-81485999D01*
X179213359Y-81485999D02*
X182706000Y-81485999D01*
X166624000Y-91694000D02*
X169005358Y-91694000D01*
X165572001Y-92745999D02*
X166624000Y-91694000D01*
X167414768Y-93921000D02*
X178324770Y-83010998D01*
X161290000Y-93921000D02*
X167414768Y-93921000D01*
X184931001Y-83010998D02*
X187706000Y-80235999D01*
X178324770Y-83010998D02*
X184931001Y-83010998D01*
X180440539Y-78985999D02*
X182706000Y-78985999D01*
X171950537Y-87476001D02*
X180440539Y-78985999D01*
X144685001Y-87476001D02*
X171950537Y-87476001D01*
X143510000Y-86301000D02*
X144685001Y-87476001D01*
X185480999Y-80215000D02*
X187706000Y-77989999D01*
X179847948Y-80215000D02*
X185480999Y-80215000D01*
X169529947Y-90533001D02*
X179847948Y-80215000D01*
X168369999Y-90533001D02*
X169529947Y-90533001D01*
X167852999Y-90016001D02*
X168369999Y-90533001D01*
X144685001Y-90016001D02*
X167852999Y-90016001D01*
X143510000Y-88841000D02*
X144685001Y-90016001D01*
X181686000Y-77505999D02*
X182706000Y-76485999D01*
X144685001Y-77505999D02*
X181686000Y-77505999D01*
X143510000Y-78681000D02*
X144685001Y-77505999D01*
X187436000Y-74965999D02*
X187706000Y-75235999D01*
X181988998Y-74965999D02*
X182512998Y-75489999D01*
X144685001Y-74965999D02*
X181988998Y-74965999D01*
X182512998Y-75489999D02*
X187706000Y-75489999D01*
X143510000Y-76141000D02*
X144685001Y-74965999D01*
X181146000Y-72425999D02*
X182706000Y-73985999D01*
X144685001Y-72425999D02*
X181146000Y-72425999D01*
X143510000Y-73601000D02*
X144685001Y-72425999D01*
X183681001Y-93264998D02*
X182706000Y-94239999D01*
X183681001Y-88071996D02*
X183681001Y-93264998D01*
X187237999Y-84514998D02*
X183681001Y-88071996D01*
X188027002Y-84514998D02*
X187237999Y-84514998D01*
X188681001Y-83860999D02*
X188027002Y-84514998D01*
X188681001Y-75021998D02*
X188681001Y-83860999D01*
X183545002Y-69885999D02*
X188681001Y-75021998D01*
X160179999Y-69885999D02*
X183545002Y-69885999D01*
X159849997Y-70216001D02*
X160179999Y-69885999D01*
X149458999Y-70216001D02*
X159849997Y-70216001D01*
X149128997Y-69885999D02*
X149458999Y-70216001D01*
X142334999Y-69950999D02*
X142399999Y-69885999D01*
X142399999Y-69885999D02*
X149128997Y-69885999D01*
X142334999Y-80045999D02*
X142334999Y-69950999D01*
X143510000Y-81221000D02*
X142334999Y-80045999D01*
D18*
X177193363Y-105816759D02*
X177193400Y-105816796D01*
X175203196Y-107807001D01*
X172075063Y-107807001D01*
X172079904Y-107791039D01*
X171957915Y-107569000D01*
X170815000Y-107569000D01*
X170815000Y-107589000D01*
X170561000Y-107589000D01*
X170561000Y-107569000D01*
X170541000Y-107569000D01*
X170541000Y-107315000D01*
X170561000Y-107315000D01*
X170561000Y-107295000D01*
X170815000Y-107295000D01*
X170815000Y-107315000D01*
X171957915Y-107315000D01*
X172079904Y-107092961D01*
X172039246Y-106958913D01*
X171957993Y-106787001D01*
X175480675Y-106787001D01*
X175517997Y-106790677D01*
X175555319Y-106787001D01*
X175555330Y-106787001D01*
X175666983Y-106776004D01*
X175810244Y-106732547D01*
X175942273Y-106661975D01*
X176057998Y-106567002D01*
X176081801Y-106537998D01*
X177037022Y-105582778D01*
X177193363Y-105816759D01*
G04 #@! TA.AperFunction,Conductor*
D19*
G36*
X177193363Y-105816759D02*
G01*
X177193400Y-105816796D01*
X175203196Y-107807001D01*
X172075063Y-107807001D01*
X172079904Y-107791039D01*
X171957915Y-107569000D01*
X170815000Y-107569000D01*
X170815000Y-107589000D01*
X170561000Y-107589000D01*
X170561000Y-107569000D01*
X170541000Y-107569000D01*
X170541000Y-107315000D01*
X170561000Y-107315000D01*
X170561000Y-107295000D01*
X170815000Y-107295000D01*
X170815000Y-107315000D01*
X171957915Y-107315000D01*
X172079904Y-107092961D01*
X172039246Y-106958913D01*
X171957993Y-106787001D01*
X175480675Y-106787001D01*
X175517997Y-106790677D01*
X175555319Y-106787001D01*
X175555330Y-106787001D01*
X175666983Y-106776004D01*
X175810244Y-106732547D01*
X175942273Y-106661975D01*
X176057998Y-106567002D01*
X176081801Y-106537998D01*
X177037022Y-105582778D01*
X177193363Y-105816759D01*
G37*
G04 #@! TD.AperFunction*
D18*
X178435000Y-94615000D02*
X178455000Y-94615000D01*
X178455000Y-94869000D01*
X178435000Y-94869000D01*
X178435000Y-94889000D01*
X178181000Y-94889000D01*
X178181000Y-94869000D01*
X178161000Y-94869000D01*
X178161000Y-94615000D01*
X178181000Y-94615000D01*
X178181000Y-94595000D01*
X178435000Y-94595000D01*
X178435000Y-94615000D01*
G04 #@! TA.AperFunction,Conductor*
D19*
G36*
X178435000Y-94615000D02*
G01*
X178455000Y-94615000D01*
X178455000Y-94869000D01*
X178435000Y-94869000D01*
X178435000Y-94889000D01*
X178181000Y-94889000D01*
X178181000Y-94869000D01*
X178161000Y-94869000D01*
X178161000Y-94615000D01*
X178181000Y-94615000D01*
X178181000Y-94595000D01*
X178435000Y-94595000D01*
X178435000Y-94615000D01*
G37*
G04 #@! TD.AperFunction*
D18*
X178006481Y-88444586D02*
X177838963Y-88670580D01*
X177718754Y-88924913D01*
X177678096Y-89058961D01*
X177800085Y-89281000D01*
X178943000Y-89281000D01*
X178943000Y-89261000D01*
X179197000Y-89261000D01*
X179197000Y-89281000D01*
X179217000Y-89281000D01*
X179217000Y-89535000D01*
X179197000Y-89535000D01*
X179197000Y-89555000D01*
X178943000Y-89555000D01*
X178943000Y-89535000D01*
X177800085Y-89535000D01*
X177678096Y-89757039D01*
X177682937Y-89773001D01*
X173910390Y-89773001D01*
X175293391Y-88390000D01*
X178066676Y-88390000D01*
X178006481Y-88444586D01*
G04 #@! TA.AperFunction,Conductor*
D19*
G36*
X178006481Y-88444586D02*
G01*
X177838963Y-88670580D01*
X177718754Y-88924913D01*
X177678096Y-89058961D01*
X177800085Y-89281000D01*
X178943000Y-89281000D01*
X178943000Y-89261000D01*
X179197000Y-89261000D01*
X179197000Y-89281000D01*
X179217000Y-89281000D01*
X179217000Y-89535000D01*
X179197000Y-89535000D01*
X179197000Y-89555000D01*
X178943000Y-89555000D01*
X178943000Y-89535000D01*
X177800085Y-89535000D01*
X177678096Y-89757039D01*
X177682937Y-89773001D01*
X173910390Y-89773001D01*
X175293391Y-88390000D01*
X178066676Y-88390000D01*
X178006481Y-88444586D01*
G37*
G04 #@! TD.AperFunction*
D18*
X180149166Y-78280188D02*
X180148292Y-78280453D01*
X180016262Y-78351025D01*
X179986485Y-78375463D01*
X179900538Y-78445998D01*
X179876740Y-78474996D01*
X179169635Y-79182101D01*
X179115990Y-79052589D01*
X178953475Y-78809368D01*
X178746632Y-78602525D01*
X178503411Y-78440010D01*
X178233158Y-78328068D01*
X177946260Y-78271000D01*
X177653740Y-78271000D01*
X177366842Y-78328068D01*
X177096589Y-78440010D01*
X176853368Y-78602525D01*
X176646525Y-78809368D01*
X176530000Y-78983760D01*
X176413475Y-78809368D01*
X176206632Y-78602525D01*
X175963411Y-78440010D01*
X175693158Y-78328068D01*
X175406260Y-78271000D01*
X175113740Y-78271000D01*
X174826842Y-78328068D01*
X174556589Y-78440010D01*
X174313368Y-78602525D01*
X174106525Y-78809368D01*
X173984805Y-78991534D01*
X173915178Y-78874645D01*
X173720269Y-78658412D01*
X173486920Y-78484359D01*
X173224099Y-78359175D01*
X173076890Y-78314524D01*
X172847000Y-78435845D01*
X172847000Y-79629000D01*
X172867000Y-79629000D01*
X172867000Y-79883000D01*
X172847000Y-79883000D01*
X172847000Y-81076155D01*
X173076890Y-81197476D01*
X173224099Y-81152825D01*
X173486920Y-81027641D01*
X173720269Y-80853588D01*
X173915178Y-80637355D01*
X173984805Y-80520466D01*
X174106525Y-80702632D01*
X174313368Y-80909475D01*
X174556589Y-81071990D01*
X174826842Y-81183932D01*
X175113740Y-81241000D01*
X175406260Y-81241000D01*
X175693158Y-81183932D01*
X175963411Y-81071990D01*
X176206632Y-80909475D01*
X176413475Y-80702632D01*
X176530000Y-80528240D01*
X176646525Y-80702632D01*
X176853368Y-80909475D01*
X177096589Y-81071990D01*
X177226101Y-81125635D01*
X171635736Y-86716001D01*
X162721544Y-86716001D01*
X162775000Y-86447260D01*
X162775000Y-86154740D01*
X162717932Y-85867842D01*
X162605990Y-85597589D01*
X162443475Y-85354368D01*
X162311620Y-85222513D01*
X162384180Y-85200502D01*
X162494494Y-85141537D01*
X162591185Y-85062185D01*
X162670537Y-84965494D01*
X162729502Y-84855180D01*
X162765812Y-84735482D01*
X162769831Y-84694665D01*
X167475000Y-84694665D01*
X167475000Y-84977335D01*
X167530147Y-85254574D01*
X167638320Y-85515727D01*
X167795363Y-85750759D01*
X167995241Y-85950637D01*
X168230273Y-86107680D01*
X168491426Y-86215853D01*
X168768665Y-86271000D01*
X169051335Y-86271000D01*
X169328574Y-86215853D01*
X169589727Y-86107680D01*
X169824759Y-85950637D01*
X170024637Y-85750759D01*
X170181680Y-85515727D01*
X170289853Y-85254574D01*
X170345000Y-84977335D01*
X170345000Y-84694665D01*
X170289853Y-84417426D01*
X170181680Y-84156273D01*
X170024637Y-83921241D01*
X169824759Y-83721363D01*
X169589727Y-83564320D01*
X169328574Y-83456147D01*
X169051335Y-83401000D01*
X168768665Y-83401000D01*
X168491426Y-83456147D01*
X168230273Y-83564320D01*
X167995241Y-83721363D01*
X167795363Y-83921241D01*
X167638320Y-84156273D01*
X167530147Y-84417426D01*
X167475000Y-84694665D01*
X162769831Y-84694665D01*
X162778072Y-84611000D01*
X162778072Y-82911000D01*
X162765812Y-82786518D01*
X162729502Y-82666820D01*
X162670537Y-82556506D01*
X162591185Y-82459815D01*
X162494494Y-82380463D01*
X162384180Y-82321498D01*
X162311620Y-82299487D01*
X162443475Y-82167632D01*
X162605990Y-81924411D01*
X162717932Y-81654158D01*
X162775000Y-81367260D01*
X162775000Y-81074740D01*
X162717932Y-80787842D01*
X162605990Y-80517589D01*
X162443475Y-80274368D01*
X162236632Y-80067525D01*
X162062240Y-79951000D01*
X162236632Y-79834475D01*
X162443475Y-79627632D01*
X162605990Y-79384411D01*
X162717932Y-79114158D01*
X162759337Y-78906000D01*
X168691928Y-78906000D01*
X168691928Y-80606000D01*
X168704188Y-80730482D01*
X168740498Y-80850180D01*
X168799463Y-80960494D01*
X168878815Y-81057185D01*
X168975506Y-81136537D01*
X169085820Y-81195502D01*
X169205518Y-81231812D01*
X169330000Y-81244072D01*
X171030000Y-81244072D01*
X171154482Y-81231812D01*
X171274180Y-81195502D01*
X171384494Y-81136537D01*
X171481185Y-81057185D01*
X171560537Y-80960494D01*
X171619502Y-80850180D01*
X171643966Y-80769534D01*
X171719731Y-80853588D01*
X171953080Y-81027641D01*
X172215901Y-81152825D01*
X172363110Y-81197476D01*
X172593000Y-81076155D01*
X172593000Y-79883000D01*
X172573000Y-79883000D01*
X172573000Y-79629000D01*
X172593000Y-79629000D01*
X172593000Y-78435845D01*
X172363110Y-78314524D01*
X172215901Y-78359175D01*
X171953080Y-78484359D01*
X171719731Y-78658412D01*
X171643966Y-78742466D01*
X171619502Y-78661820D01*
X171560537Y-78551506D01*
X171481185Y-78454815D01*
X171384494Y-78375463D01*
X171274180Y-78316498D01*
X171154482Y-78280188D01*
X171030000Y-78267928D01*
X169330000Y-78267928D01*
X169205518Y-78280188D01*
X169085820Y-78316498D01*
X168975506Y-78375463D01*
X168878815Y-78454815D01*
X168799463Y-78551506D01*
X168740498Y-78661820D01*
X168704188Y-78781518D01*
X168691928Y-78906000D01*
X162759337Y-78906000D01*
X162775000Y-78827260D01*
X162775000Y-78534740D01*
X162721544Y-78265999D01*
X180195941Y-78265999D01*
X180149166Y-78280188D01*
G04 #@! TA.AperFunction,Conductor*
D19*
G36*
X180149166Y-78280188D02*
G01*
X180148292Y-78280453D01*
X180016262Y-78351025D01*
X179986485Y-78375463D01*
X179900538Y-78445998D01*
X179876740Y-78474996D01*
X179169635Y-79182101D01*
X179115990Y-79052589D01*
X178953475Y-78809368D01*
X178746632Y-78602525D01*
X178503411Y-78440010D01*
X178233158Y-78328068D01*
X177946260Y-78271000D01*
X177653740Y-78271000D01*
X177366842Y-78328068D01*
X177096589Y-78440010D01*
X176853368Y-78602525D01*
X176646525Y-78809368D01*
X176530000Y-78983760D01*
X176413475Y-78809368D01*
X176206632Y-78602525D01*
X175963411Y-78440010D01*
X175693158Y-78328068D01*
X175406260Y-78271000D01*
X175113740Y-78271000D01*
X174826842Y-78328068D01*
X174556589Y-78440010D01*
X174313368Y-78602525D01*
X174106525Y-78809368D01*
X173984805Y-78991534D01*
X173915178Y-78874645D01*
X173720269Y-78658412D01*
X173486920Y-78484359D01*
X173224099Y-78359175D01*
X173076890Y-78314524D01*
X172847000Y-78435845D01*
X172847000Y-79629000D01*
X172867000Y-79629000D01*
X172867000Y-79883000D01*
X172847000Y-79883000D01*
X172847000Y-81076155D01*
X173076890Y-81197476D01*
X173224099Y-81152825D01*
X173486920Y-81027641D01*
X173720269Y-80853588D01*
X173915178Y-80637355D01*
X173984805Y-80520466D01*
X174106525Y-80702632D01*
X174313368Y-80909475D01*
X174556589Y-81071990D01*
X174826842Y-81183932D01*
X175113740Y-81241000D01*
X175406260Y-81241000D01*
X175693158Y-81183932D01*
X175963411Y-81071990D01*
X176206632Y-80909475D01*
X176413475Y-80702632D01*
X176530000Y-80528240D01*
X176646525Y-80702632D01*
X176853368Y-80909475D01*
X177096589Y-81071990D01*
X177226101Y-81125635D01*
X171635736Y-86716001D01*
X162721544Y-86716001D01*
X162775000Y-86447260D01*
X162775000Y-86154740D01*
X162717932Y-85867842D01*
X162605990Y-85597589D01*
X162443475Y-85354368D01*
X162311620Y-85222513D01*
X162384180Y-85200502D01*
X162494494Y-85141537D01*
X162591185Y-85062185D01*
X162670537Y-84965494D01*
X162729502Y-84855180D01*
X162765812Y-84735482D01*
X162769831Y-84694665D01*
X167475000Y-84694665D01*
X167475000Y-84977335D01*
X167530147Y-85254574D01*
X167638320Y-85515727D01*
X167795363Y-85750759D01*
X167995241Y-85950637D01*
X168230273Y-86107680D01*
X168491426Y-86215853D01*
X168768665Y-86271000D01*
X169051335Y-86271000D01*
X169328574Y-86215853D01*
X169589727Y-86107680D01*
X169824759Y-85950637D01*
X170024637Y-85750759D01*
X170181680Y-85515727D01*
X170289853Y-85254574D01*
X170345000Y-84977335D01*
X170345000Y-84694665D01*
X170289853Y-84417426D01*
X170181680Y-84156273D01*
X170024637Y-83921241D01*
X169824759Y-83721363D01*
X169589727Y-83564320D01*
X169328574Y-83456147D01*
X169051335Y-83401000D01*
X168768665Y-83401000D01*
X168491426Y-83456147D01*
X168230273Y-83564320D01*
X167995241Y-83721363D01*
X167795363Y-83921241D01*
X167638320Y-84156273D01*
X167530147Y-84417426D01*
X167475000Y-84694665D01*
X162769831Y-84694665D01*
X162778072Y-84611000D01*
X162778072Y-82911000D01*
X162765812Y-82786518D01*
X162729502Y-82666820D01*
X162670537Y-82556506D01*
X162591185Y-82459815D01*
X162494494Y-82380463D01*
X162384180Y-82321498D01*
X162311620Y-82299487D01*
X162443475Y-82167632D01*
X162605990Y-81924411D01*
X162717932Y-81654158D01*
X162775000Y-81367260D01*
X162775000Y-81074740D01*
X162717932Y-80787842D01*
X162605990Y-80517589D01*
X162443475Y-80274368D01*
X162236632Y-80067525D01*
X162062240Y-79951000D01*
X162236632Y-79834475D01*
X162443475Y-79627632D01*
X162605990Y-79384411D01*
X162717932Y-79114158D01*
X162759337Y-78906000D01*
X168691928Y-78906000D01*
X168691928Y-80606000D01*
X168704188Y-80730482D01*
X168740498Y-80850180D01*
X168799463Y-80960494D01*
X168878815Y-81057185D01*
X168975506Y-81136537D01*
X169085820Y-81195502D01*
X169205518Y-81231812D01*
X169330000Y-81244072D01*
X171030000Y-81244072D01*
X171154482Y-81231812D01*
X171274180Y-81195502D01*
X171384494Y-81136537D01*
X171481185Y-81057185D01*
X171560537Y-80960494D01*
X171619502Y-80850180D01*
X171643966Y-80769534D01*
X171719731Y-80853588D01*
X171953080Y-81027641D01*
X172215901Y-81152825D01*
X172363110Y-81197476D01*
X172593000Y-81076155D01*
X172593000Y-79883000D01*
X172573000Y-79883000D01*
X172573000Y-79629000D01*
X172593000Y-79629000D01*
X172593000Y-78435845D01*
X172363110Y-78314524D01*
X172215901Y-78359175D01*
X171953080Y-78484359D01*
X171719731Y-78658412D01*
X171643966Y-78742466D01*
X171619502Y-78661820D01*
X171560537Y-78551506D01*
X171481185Y-78454815D01*
X171384494Y-78375463D01*
X171274180Y-78316498D01*
X171154482Y-78280188D01*
X171030000Y-78267928D01*
X169330000Y-78267928D01*
X169205518Y-78280188D01*
X169085820Y-78316498D01*
X168975506Y-78375463D01*
X168878815Y-78454815D01*
X168799463Y-78551506D01*
X168740498Y-78661820D01*
X168704188Y-78781518D01*
X168691928Y-78906000D01*
X162759337Y-78906000D01*
X162775000Y-78827260D01*
X162775000Y-78534740D01*
X162721544Y-78265999D01*
X180195941Y-78265999D01*
X180149166Y-78280188D01*
G37*
G04 #@! TD.AperFunction*
D18*
X181470381Y-83865178D02*
X181421000Y-84113438D01*
X181421000Y-84196197D01*
X180451357Y-85165841D01*
X180339915Y-84963000D01*
X179197000Y-84963000D01*
X179197000Y-84983000D01*
X178943000Y-84983000D01*
X178943000Y-84963000D01*
X177800085Y-84963000D01*
X177678096Y-85185039D01*
X177682937Y-85201001D01*
X177209569Y-85201001D01*
X177765152Y-84645417D01*
X177800085Y-84709000D01*
X178943000Y-84709000D01*
X178943000Y-84689000D01*
X179197000Y-84689000D01*
X179197000Y-84709000D01*
X180339915Y-84709000D01*
X180461904Y-84486961D01*
X180421246Y-84352913D01*
X180301037Y-84098580D01*
X180133519Y-83872586D01*
X180021493Y-83770998D01*
X181509392Y-83770998D01*
X181470381Y-83865178D01*
G04 #@! TA.AperFunction,Conductor*
D19*
G36*
X181470381Y-83865178D02*
G01*
X181421000Y-84113438D01*
X181421000Y-84196197D01*
X180451357Y-85165841D01*
X180339915Y-84963000D01*
X179197000Y-84963000D01*
X179197000Y-84983000D01*
X178943000Y-84983000D01*
X178943000Y-84963000D01*
X177800085Y-84963000D01*
X177678096Y-85185039D01*
X177682937Y-85201001D01*
X177209569Y-85201001D01*
X177765152Y-84645417D01*
X177800085Y-84709000D01*
X178943000Y-84709000D01*
X178943000Y-84689000D01*
X179197000Y-84689000D01*
X179197000Y-84709000D01*
X180339915Y-84709000D01*
X180461904Y-84486961D01*
X180421246Y-84352913D01*
X180301037Y-84098580D01*
X180133519Y-83872586D01*
X180021493Y-83770998D01*
X181509392Y-83770998D01*
X181470381Y-83865178D01*
G37*
G04 #@! TD.AperFunction*
D18*
X159848524Y-75784110D02*
X159969845Y-76014000D01*
X161163000Y-76014000D01*
X161163000Y-75994000D01*
X161417000Y-75994000D01*
X161417000Y-76014000D01*
X162610155Y-76014000D01*
X162731476Y-75784110D01*
X162713850Y-75725999D01*
X181674197Y-75725999D01*
X181788466Y-75840268D01*
X181707875Y-75920859D01*
X181567247Y-76131323D01*
X181470381Y-76365178D01*
X181421000Y-76613438D01*
X181421000Y-76696198D01*
X181371199Y-76745999D01*
X162638765Y-76745999D01*
X162686825Y-76645099D01*
X162731476Y-76497890D01*
X162610155Y-76268000D01*
X161417000Y-76268000D01*
X161417000Y-76288000D01*
X161163000Y-76288000D01*
X161163000Y-76268000D01*
X159969845Y-76268000D01*
X159848524Y-76497890D01*
X159893175Y-76645099D01*
X159941235Y-76745999D01*
X144866753Y-76745999D01*
X144937932Y-76574158D01*
X144995000Y-76287260D01*
X144995000Y-75994740D01*
X144951210Y-75774592D01*
X144999803Y-75725999D01*
X159866150Y-75725999D01*
X159848524Y-75784110D01*
G04 #@! TA.AperFunction,Conductor*
D19*
G36*
X159848524Y-75784110D02*
G01*
X159969845Y-76014000D01*
X161163000Y-76014000D01*
X161163000Y-75994000D01*
X161417000Y-75994000D01*
X161417000Y-76014000D01*
X162610155Y-76014000D01*
X162731476Y-75784110D01*
X162713850Y-75725999D01*
X181674197Y-75725999D01*
X181788466Y-75840268D01*
X181707875Y-75920859D01*
X181567247Y-76131323D01*
X181470381Y-76365178D01*
X181421000Y-76613438D01*
X181421000Y-76696198D01*
X181371199Y-76745999D01*
X162638765Y-76745999D01*
X162686825Y-76645099D01*
X162731476Y-76497890D01*
X162610155Y-76268000D01*
X161417000Y-76268000D01*
X161417000Y-76288000D01*
X161163000Y-76288000D01*
X161163000Y-76268000D01*
X159969845Y-76268000D01*
X159848524Y-76497890D01*
X159893175Y-76645099D01*
X159941235Y-76745999D01*
X144866753Y-76745999D01*
X144937932Y-76574158D01*
X144995000Y-76287260D01*
X144995000Y-75994740D01*
X144951210Y-75774592D01*
X144999803Y-75725999D01*
X159866150Y-75725999D01*
X159848524Y-75784110D01*
G37*
G04 #@! TD.AperFunction*
M02*
