G04 #@! TF.GenerationSoftware,KiCad,Pcbnew,(5.1.10)-1*
G04 #@! TF.CreationDate,2021-07-09T21:47:44+10:00*
G04 #@! TF.ProjectId,A600Keyboard_USB_Pico,41363030-4b65-4796-926f-6172645f5553,rev?*
G04 #@! TF.SameCoordinates,Original*
G04 #@! TF.FileFunction,Copper,L1,Top*
G04 #@! TF.FilePolarity,Positive*
%FSLAX46Y46*%
G04 Gerber Fmt 4.6, Leading zero omitted, Abs format (unit mm)*
G04 Created by KiCad (PCBNEW (5.1.10)-1) date 2021-07-09 21:47:44*
%MOMM*%
%LPD*%
G01*
G04 APERTURE LIST*
G04 #@! TA.AperFunction,ComponentPad*
%ADD10O,1.600000X1.600000*%
G04 #@! TD*
G04 #@! TA.AperFunction,ComponentPad*
%ADD11R,1.600000X1.600000*%
G04 #@! TD*
G04 #@! TA.AperFunction,ComponentPad*
%ADD12C,1.300000*%
G04 #@! TD*
G04 #@! TA.AperFunction,ComponentPad*
%ADD13R,1.300000X1.300000*%
G04 #@! TD*
G04 #@! TA.AperFunction,ComponentPad*
%ADD14O,1.700000X1.700000*%
G04 #@! TD*
G04 #@! TA.AperFunction,SMDPad,CuDef*
%ADD15R,1.700000X3.500000*%
G04 #@! TD*
G04 #@! TA.AperFunction,ComponentPad*
%ADD16R,1.700000X1.700000*%
G04 #@! TD*
G04 #@! TA.AperFunction,SMDPad,CuDef*
%ADD17R,3.500000X1.700000*%
G04 #@! TD*
G04 #@! TA.AperFunction,ComponentPad*
%ADD18C,1.600000*%
G04 #@! TD*
G04 #@! TA.AperFunction,Conductor*
%ADD19C,0.250000*%
G04 #@! TD*
G04 #@! TA.AperFunction,Conductor*
%ADD20C,0.254000*%
G04 #@! TD*
G04 #@! TA.AperFunction,Conductor*
%ADD21C,0.100000*%
G04 #@! TD*
G04 APERTURE END LIST*
D10*
X178308000Y-94742000D03*
X170688000Y-115062000D03*
X178308000Y-97282000D03*
X170688000Y-112522000D03*
X178308000Y-99822000D03*
X170688000Y-109982000D03*
X178308000Y-102362000D03*
X170688000Y-107442000D03*
X178308000Y-104902000D03*
X170688000Y-104902000D03*
X178308000Y-107442000D03*
X170688000Y-102362000D03*
X178308000Y-109982000D03*
X170688000Y-99822000D03*
X178308000Y-112522000D03*
X170688000Y-97282000D03*
X178308000Y-115062000D03*
D11*
X170688000Y-94742000D03*
D12*
X182706000Y-86739999D03*
X187706000Y-87989999D03*
X182706000Y-89239999D03*
X187706000Y-90489999D03*
X182706000Y-91739999D03*
X187706000Y-92989999D03*
X182706000Y-94239999D03*
X187706000Y-95490000D03*
X182706000Y-96740000D03*
X187706000Y-97990000D03*
X182706000Y-99240000D03*
X187706000Y-100490000D03*
X182706000Y-101740000D03*
X187706000Y-102990000D03*
X182706000Y-104240000D03*
X187706000Y-105490000D03*
X182706000Y-106740000D03*
X187706000Y-107990000D03*
X182706000Y-109240000D03*
D13*
X187706000Y-110490000D03*
D12*
X187706000Y-85489999D03*
X182706000Y-84239999D03*
X187706000Y-82989999D03*
X182706000Y-81739999D03*
X187706000Y-80489999D03*
X182706000Y-79239999D03*
X187706000Y-77989999D03*
X182706000Y-76739999D03*
X187706000Y-75489999D03*
X182706000Y-74239999D03*
D14*
X154940000Y-114011000D03*
D15*
X154940000Y-114911000D03*
D16*
X152400000Y-114011000D03*
D15*
X152400000Y-114911000D03*
D14*
X149860000Y-114011000D03*
D15*
X149860000Y-114911000D03*
D17*
X162190000Y-114241000D03*
X162190000Y-111701000D03*
X162190000Y-109161000D03*
X162190000Y-106621000D03*
X162190000Y-104081000D03*
X162190000Y-101541000D03*
X162190000Y-99001000D03*
X162190000Y-96461000D03*
X162190000Y-93921000D03*
X162190000Y-91381000D03*
X162190000Y-88841000D03*
X162190000Y-86301000D03*
X162190000Y-83761000D03*
X162190000Y-81221000D03*
X162190000Y-78681000D03*
X162190000Y-76141000D03*
X162190000Y-73601000D03*
X162190000Y-71061000D03*
X162190000Y-68521000D03*
X162190000Y-65981000D03*
X142610000Y-114241000D03*
X142610000Y-111701000D03*
X142610000Y-109161000D03*
X142610000Y-106621000D03*
X142610000Y-104081000D03*
X142610000Y-101541000D03*
X142610000Y-99001000D03*
X142610000Y-96461000D03*
X142610000Y-93921000D03*
X142610000Y-91381000D03*
X142610000Y-88841000D03*
X142610000Y-86301000D03*
X142610000Y-83761000D03*
X142610000Y-81221000D03*
X142610000Y-78681000D03*
X142610000Y-76141000D03*
X142610000Y-73601000D03*
X142610000Y-71061000D03*
X142610000Y-68521000D03*
X142610000Y-65981000D03*
D14*
X161290000Y-65981000D03*
X161290000Y-68521000D03*
D16*
X161290000Y-71061000D03*
D14*
X161290000Y-73601000D03*
X161290000Y-76141000D03*
X161290000Y-78681000D03*
X161290000Y-81221000D03*
D16*
X161290000Y-83761000D03*
D14*
X161290000Y-86301000D03*
X161290000Y-88841000D03*
X161290000Y-91381000D03*
X161290000Y-93921000D03*
D16*
X161290000Y-96461000D03*
D14*
X161290000Y-99001000D03*
X161290000Y-101541000D03*
X161290000Y-104081000D03*
X161290000Y-106621000D03*
D16*
X161290000Y-109161000D03*
D14*
X161290000Y-111701000D03*
X161290000Y-114241000D03*
X143510000Y-114241000D03*
X143510000Y-111701000D03*
D16*
X143510000Y-109161000D03*
D14*
X143510000Y-106621000D03*
X143510000Y-104081000D03*
X143510000Y-101541000D03*
X143510000Y-99001000D03*
D16*
X143510000Y-96461000D03*
D14*
X143510000Y-93921000D03*
X143510000Y-91381000D03*
X143510000Y-88841000D03*
X143510000Y-86301000D03*
D16*
X143510000Y-83761000D03*
D14*
X143510000Y-81221000D03*
X143510000Y-78681000D03*
X143510000Y-76141000D03*
X143510000Y-73601000D03*
D16*
X143510000Y-71061000D03*
D14*
X143510000Y-68521000D03*
X143510000Y-65981000D03*
D10*
X179070000Y-84836000D03*
D18*
X168910000Y-84836000D03*
D10*
X179070000Y-89408000D03*
D18*
X168910000Y-89408000D03*
D14*
X177800000Y-79756000D03*
X175260000Y-79756000D03*
X172720000Y-79756000D03*
D16*
X170180000Y-79756000D03*
D19*
X163845000Y-109161000D02*
X161290000Y-109161000D01*
X143510000Y-71061000D02*
X145796000Y-73347000D01*
X145796000Y-81220002D02*
X143510000Y-83506002D01*
X143510000Y-83506002D02*
X143510000Y-83761000D01*
X145796000Y-73347000D02*
X145796000Y-81220002D01*
X161290000Y-83761000D02*
X160587000Y-83761000D01*
X160587000Y-83761000D02*
X158242000Y-86106000D01*
X158242000Y-93413000D02*
X161290000Y-96461000D01*
X158242000Y-86106000D02*
X158242000Y-93413000D01*
X143510000Y-96461000D02*
X143959000Y-96461000D01*
X143959000Y-96461000D02*
X147066000Y-99568000D01*
X147066000Y-99568000D02*
X147066000Y-105605000D01*
X152400000Y-110939000D02*
X152400000Y-114011000D01*
X142689000Y-109982000D02*
X143510000Y-109161000D01*
X143891412Y-109161000D02*
X143510000Y-109161000D01*
X147066000Y-105986412D02*
X143891412Y-109161000D01*
X147066000Y-105605000D02*
X147066000Y-105986412D01*
X142689000Y-84582000D02*
X143510000Y-83761000D01*
X161290000Y-96461000D02*
X151862500Y-105888500D01*
X147066000Y-105605000D02*
X147349500Y-105888500D01*
X151862500Y-105888500D02*
X147349500Y-105888500D01*
X147349500Y-105888500D02*
X152400000Y-110939000D01*
X159512000Y-110939000D02*
X161290000Y-109161000D01*
X152400000Y-110939000D02*
X159512000Y-110939000D01*
X164787000Y-109161000D02*
X161290000Y-109161000D01*
X170688000Y-115062000D02*
X164787000Y-109161000D01*
X169046000Y-104902000D02*
X164787000Y-109161000D01*
X170688000Y-104902000D02*
X169046000Y-104902000D01*
X170688000Y-99822000D02*
X170688000Y-102362000D01*
X170688000Y-104902000D02*
X170688000Y-102362000D01*
X161290000Y-83761000D02*
X160215000Y-83761000D01*
X160215000Y-83761000D02*
X157480000Y-81026000D01*
X157480000Y-74871000D02*
X161290000Y-71061000D01*
X157480000Y-81026000D02*
X157480000Y-74871000D01*
X170180000Y-78405998D02*
X170180000Y-79756000D01*
X162835002Y-71061000D02*
X170180000Y-78405998D01*
X161290000Y-71061000D02*
X162835002Y-71061000D01*
X143510000Y-83761000D02*
X143959000Y-83761000D01*
X143959000Y-83761000D02*
X146558000Y-86360000D01*
X146558000Y-93413000D02*
X143510000Y-96461000D01*
X146558000Y-86360000D02*
X146558000Y-93413000D01*
X177767999Y-106316999D02*
X182536999Y-106316999D01*
X182536999Y-106316999D02*
X182706000Y-106486000D01*
X171813001Y-112271997D02*
X177767999Y-106316999D01*
X171813001Y-113936999D02*
X171813001Y-112271997D01*
X170688000Y-115062000D02*
X171813001Y-113936999D01*
X161290000Y-65981000D02*
X161290000Y-68521000D01*
X186730999Y-88965000D02*
X187706000Y-87989999D01*
X186730999Y-94158003D02*
X186730999Y-88965000D01*
X183174001Y-97715001D02*
X186730999Y-94158003D01*
X180414999Y-97715001D02*
X183174001Y-97715001D01*
X178308000Y-99822000D02*
X180414999Y-97715001D01*
X178308000Y-104902000D02*
X178367001Y-104961001D01*
X185480999Y-100215001D02*
X187706000Y-97990000D01*
X182787997Y-100215001D02*
X185480999Y-100215001D01*
X178308000Y-104694998D02*
X182787997Y-100215001D01*
X178308000Y-104902000D02*
X178308000Y-104694998D01*
X181684000Y-98986000D02*
X182706000Y-98986000D01*
X178308000Y-102362000D02*
X181684000Y-98986000D01*
X189131011Y-101661011D02*
X187706000Y-100236000D01*
X189131011Y-115723991D02*
X189131011Y-101661011D01*
X186598001Y-118257001D02*
X189131011Y-115723991D01*
X143440999Y-118257001D02*
X186598001Y-118257001D01*
X140534999Y-115351001D02*
X143440999Y-118257001D01*
X140534999Y-113130999D02*
X140534999Y-115351001D01*
X141964998Y-111701000D02*
X140534999Y-113130999D01*
X143510000Y-111701000D02*
X141964998Y-111701000D01*
X188681001Y-108458001D02*
X188681001Y-103965001D01*
X188174001Y-108965001D02*
X188681001Y-108458001D01*
X182373999Y-113936999D02*
X187345997Y-108965001D01*
X187345997Y-108965001D02*
X188174001Y-108965001D01*
X177767999Y-113936999D02*
X182373999Y-113936999D01*
X188681001Y-103965001D02*
X187706000Y-102990000D01*
X174617978Y-117087020D02*
X177767999Y-113936999D01*
X146356020Y-117087020D02*
X174617978Y-117087020D01*
X143510000Y-114241000D02*
X146356020Y-117087020D01*
X161290000Y-111701000D02*
X162835002Y-111701000D01*
X185480999Y-107715001D02*
X187706000Y-105490000D01*
X182787997Y-107715001D02*
X185480999Y-107715001D01*
X181935997Y-108567001D02*
X182787997Y-107715001D01*
X177182999Y-109441999D02*
X178057997Y-108567001D01*
X177182999Y-110232003D02*
X177182999Y-109441999D01*
X178057997Y-108567001D02*
X181935997Y-108567001D01*
X170147999Y-116187001D02*
X171228001Y-116187001D01*
X171228001Y-116187001D02*
X177182999Y-110232003D01*
X165661998Y-111701000D02*
X170147999Y-116187001D01*
X161290000Y-111701000D02*
X165661998Y-111701000D01*
X182920000Y-112522000D02*
X187706000Y-107736000D01*
X178308000Y-112522000D02*
X182920000Y-112522000D01*
X180584999Y-111107001D02*
X182706000Y-108986000D01*
X178057997Y-111107001D02*
X180584999Y-111107001D01*
X172527988Y-116637010D02*
X178057997Y-111107001D01*
X163686010Y-116637010D02*
X172527988Y-116637010D01*
X161290000Y-114241000D02*
X163686010Y-116637010D01*
X182880000Y-115062000D02*
X187706000Y-110236000D01*
X178308000Y-115062000D02*
X182880000Y-115062000D01*
X186280990Y-86915009D02*
X187706000Y-85489999D01*
X186280990Y-90071010D02*
X186280990Y-86915009D01*
X183637000Y-92715000D02*
X186280990Y-90071010D01*
X182787997Y-92715000D02*
X183637000Y-92715000D01*
X178308000Y-97194997D02*
X182787997Y-92715000D01*
X178308000Y-97282000D02*
X178308000Y-97194997D01*
X162835002Y-93921000D02*
X161290000Y-93921000D01*
X167445000Y-86301000D02*
X168910000Y-84836000D01*
X161290000Y-86301000D02*
X167445000Y-86301000D01*
X170688000Y-86614000D02*
X170688000Y-94742000D01*
X168910000Y-84836000D02*
X170688000Y-86614000D01*
X161458990Y-89009990D02*
X161290000Y-88841000D01*
X168343000Y-88841000D02*
X168910000Y-89408000D01*
X161290000Y-88841000D02*
X168343000Y-88841000D01*
X168910000Y-95504000D02*
X170688000Y-97282000D01*
X168910000Y-89408000D02*
X168910000Y-95504000D01*
X161290000Y-76141000D02*
X163009000Y-76141000D01*
X161390001Y-76040999D02*
X161290000Y-76141000D01*
X178308000Y-90170000D02*
X179070000Y-89408000D01*
X178308000Y-94742000D02*
X178308000Y-90170000D01*
X179070000Y-89408000D02*
X179070000Y-84836000D01*
X172858630Y-79756000D02*
X172720000Y-79756000D01*
X177938630Y-84836000D02*
X172858630Y-79756000D01*
X179070000Y-84836000D02*
X177938630Y-84836000D01*
X162835002Y-76141000D02*
X161290000Y-76141000D01*
X167625003Y-80931001D02*
X162835002Y-76141000D01*
X171544999Y-80931001D02*
X167625003Y-80931001D01*
X172720000Y-79756000D02*
X171544999Y-80931001D01*
X177182999Y-95867001D02*
X175912999Y-95867001D01*
X178308000Y-94742000D02*
X177182999Y-95867001D01*
X175912999Y-95867001D02*
X174498000Y-97282000D01*
X171819370Y-107442000D02*
X170688000Y-107442000D01*
X174498000Y-104763370D02*
X171819370Y-107442000D01*
X174498000Y-97282000D02*
X174498000Y-104763370D01*
X162835002Y-81221000D02*
X161290000Y-81221000D01*
X177800000Y-78405998D02*
X177800000Y-79756000D01*
X164200001Y-64805999D02*
X177800000Y-78405998D01*
X148906999Y-64805999D02*
X164200001Y-64805999D01*
X147731998Y-65981000D02*
X148906999Y-64805999D01*
X143510000Y-65981000D02*
X147731998Y-65981000D01*
X165389999Y-69885999D02*
X175260000Y-79756000D01*
X160369997Y-69885999D02*
X165389999Y-69885999D01*
X158549997Y-68065999D02*
X160369997Y-69885999D01*
X143965001Y-68065999D02*
X158549997Y-68065999D01*
X143510000Y-68521000D02*
X143965001Y-68065999D01*
D20*
X140234188Y-65006518D02*
X140221928Y-65131000D01*
X140221928Y-66831000D01*
X140234188Y-66955482D01*
X140270498Y-67075180D01*
X140329463Y-67185494D01*
X140383222Y-67251000D01*
X140329463Y-67316506D01*
X140270498Y-67426820D01*
X140234188Y-67546518D01*
X140221928Y-67671000D01*
X140221928Y-69371000D01*
X140234188Y-69495482D01*
X140270498Y-69615180D01*
X140329463Y-69725494D01*
X140383222Y-69791000D01*
X140329463Y-69856506D01*
X140270498Y-69966820D01*
X140234188Y-70086518D01*
X140221928Y-70211000D01*
X140225000Y-70775250D01*
X140383750Y-70934000D01*
X144836250Y-70934000D01*
X144995000Y-70775250D01*
X144998072Y-70211000D01*
X144985812Y-70086518D01*
X144949502Y-69966820D01*
X144890537Y-69856506D01*
X144836778Y-69791000D01*
X144890537Y-69725494D01*
X144949502Y-69615180D01*
X144985812Y-69495482D01*
X144998072Y-69371000D01*
X144998072Y-68825999D01*
X148625524Y-68825999D01*
X148590000Y-69004589D01*
X148590000Y-69277411D01*
X148643225Y-69544989D01*
X148747629Y-69797043D01*
X148899201Y-70023886D01*
X149092114Y-70216799D01*
X149318957Y-70368371D01*
X149571011Y-70472775D01*
X149838589Y-70526000D01*
X150111411Y-70526000D01*
X150378989Y-70472775D01*
X150631043Y-70368371D01*
X150857886Y-70216799D01*
X151050799Y-70023886D01*
X151202371Y-69797043D01*
X151306775Y-69544989D01*
X151360000Y-69277411D01*
X151360000Y-69004589D01*
X151324476Y-68825999D01*
X153475524Y-68825999D01*
X153440000Y-69004589D01*
X153440000Y-69277411D01*
X153493225Y-69544989D01*
X153597629Y-69797043D01*
X153749201Y-70023886D01*
X153942114Y-70216799D01*
X154168957Y-70368371D01*
X154421011Y-70472775D01*
X154688589Y-70526000D01*
X154961411Y-70526000D01*
X155228989Y-70472775D01*
X155481043Y-70368371D01*
X155707886Y-70216799D01*
X155900799Y-70023886D01*
X156052371Y-69797043D01*
X156156775Y-69544989D01*
X156210000Y-69277411D01*
X156210000Y-69004589D01*
X156174476Y-68825999D01*
X158235196Y-68825999D01*
X159802923Y-70393727D01*
X159805000Y-70775250D01*
X159963750Y-70934000D01*
X164416250Y-70934000D01*
X164575000Y-70775250D01*
X164575704Y-70645999D01*
X165075198Y-70645999D01*
X172700198Y-78271000D01*
X172573740Y-78271000D01*
X172286842Y-78328068D01*
X172016589Y-78440010D01*
X171773368Y-78602525D01*
X171641513Y-78734380D01*
X171619502Y-78661820D01*
X171560537Y-78551506D01*
X171481185Y-78454815D01*
X171384494Y-78375463D01*
X171274180Y-78316498D01*
X171154482Y-78280188D01*
X171030000Y-78267928D01*
X170465750Y-78271000D01*
X170307000Y-78429750D01*
X170307000Y-79629000D01*
X170327000Y-79629000D01*
X170327000Y-79883000D01*
X170307000Y-79883000D01*
X170307000Y-79903000D01*
X170053000Y-79903000D01*
X170053000Y-79883000D01*
X168853750Y-79883000D01*
X168695000Y-80041750D01*
X168694296Y-80171001D01*
X167939806Y-80171001D01*
X166674805Y-78906000D01*
X168691928Y-78906000D01*
X168695000Y-79470250D01*
X168853750Y-79629000D01*
X170053000Y-79629000D01*
X170053000Y-78429750D01*
X169894250Y-78271000D01*
X169330000Y-78267928D01*
X169205518Y-78280188D01*
X169085820Y-78316498D01*
X168975506Y-78375463D01*
X168878815Y-78454815D01*
X168799463Y-78551506D01*
X168740498Y-78661820D01*
X168704188Y-78781518D01*
X168691928Y-78906000D01*
X166674805Y-78906000D01*
X164578072Y-76809268D01*
X164578072Y-75291000D01*
X164565812Y-75166518D01*
X164529502Y-75046820D01*
X164470537Y-74936506D01*
X164416778Y-74871000D01*
X164470537Y-74805494D01*
X164529502Y-74695180D01*
X164565812Y-74575482D01*
X164578072Y-74451000D01*
X164578072Y-72751000D01*
X164565812Y-72626518D01*
X164529502Y-72506820D01*
X164470537Y-72396506D01*
X164416778Y-72331000D01*
X164470537Y-72265494D01*
X164529502Y-72155180D01*
X164565812Y-72035482D01*
X164578072Y-71911000D01*
X164575000Y-71346750D01*
X164416250Y-71188000D01*
X159963750Y-71188000D01*
X159805000Y-71346750D01*
X159801928Y-71911000D01*
X159814188Y-72035482D01*
X159850498Y-72155180D01*
X159909463Y-72265494D01*
X159963222Y-72331000D01*
X159909463Y-72396506D01*
X159850498Y-72506820D01*
X159814188Y-72626518D01*
X159801928Y-72751000D01*
X159801928Y-74451000D01*
X159814188Y-74575482D01*
X159850498Y-74695180D01*
X159909463Y-74805494D01*
X159963222Y-74871000D01*
X159909463Y-74936506D01*
X159850498Y-75046820D01*
X159814188Y-75166518D01*
X159801928Y-75291000D01*
X159801928Y-76991000D01*
X159814188Y-77115482D01*
X159850498Y-77235180D01*
X159909463Y-77345494D01*
X159963222Y-77411000D01*
X159909463Y-77476506D01*
X159850498Y-77586820D01*
X159814188Y-77706518D01*
X159801928Y-77831000D01*
X159801928Y-79531000D01*
X159814188Y-79655482D01*
X159850498Y-79775180D01*
X159909463Y-79885494D01*
X159963222Y-79951000D01*
X159909463Y-80016506D01*
X159850498Y-80126820D01*
X159814188Y-80246518D01*
X159801928Y-80371000D01*
X159801928Y-82071000D01*
X159814188Y-82195482D01*
X159850498Y-82315180D01*
X159909463Y-82425494D01*
X159963222Y-82491000D01*
X159909463Y-82556506D01*
X159850498Y-82666820D01*
X159814188Y-82786518D01*
X159801928Y-82911000D01*
X159805000Y-83475250D01*
X159963750Y-83634000D01*
X164416250Y-83634000D01*
X164575000Y-83475250D01*
X164578072Y-82911000D01*
X164565812Y-82786518D01*
X164529502Y-82666820D01*
X164470537Y-82556506D01*
X164416778Y-82491000D01*
X164470537Y-82425494D01*
X164529502Y-82315180D01*
X164565812Y-82195482D01*
X164578072Y-82071000D01*
X164578072Y-80371000D01*
X164565812Y-80246518D01*
X164529502Y-80126820D01*
X164470537Y-80016506D01*
X164416778Y-79951000D01*
X164470537Y-79885494D01*
X164529502Y-79775180D01*
X164565812Y-79655482D01*
X164578072Y-79531000D01*
X164578072Y-78958872D01*
X167061208Y-81442009D01*
X167085002Y-81471002D01*
X167113995Y-81494796D01*
X167113999Y-81494800D01*
X167184688Y-81552812D01*
X167200727Y-81565975D01*
X167332756Y-81636547D01*
X167476017Y-81680004D01*
X167587670Y-81691001D01*
X167587679Y-81691001D01*
X167625002Y-81694677D01*
X167662325Y-81691001D01*
X171507677Y-81691001D01*
X171544999Y-81694677D01*
X171582321Y-81691001D01*
X171582332Y-81691001D01*
X171693985Y-81680004D01*
X171837246Y-81636547D01*
X171969275Y-81565975D01*
X172085000Y-81471002D01*
X172108803Y-81441998D01*
X172353592Y-81197209D01*
X172573740Y-81241000D01*
X172866260Y-81241000D01*
X173153158Y-81183932D01*
X173194597Y-81166768D01*
X177374830Y-85347002D01*
X177398629Y-85376001D01*
X177427627Y-85399799D01*
X177514353Y-85470974D01*
X177615426Y-85524999D01*
X177646383Y-85541546D01*
X177789644Y-85585003D01*
X177848481Y-85590798D01*
X177955363Y-85750759D01*
X178155241Y-85950637D01*
X178310001Y-86054044D01*
X178310000Y-88189956D01*
X178155241Y-88293363D01*
X177955363Y-88493241D01*
X177798320Y-88728273D01*
X177690147Y-88989426D01*
X177635000Y-89266665D01*
X177635000Y-89549335D01*
X177673862Y-89744705D01*
X177673026Y-89745724D01*
X177602454Y-89877754D01*
X177558998Y-90021015D01*
X177544324Y-90170000D01*
X177548001Y-90207332D01*
X177548000Y-93523956D01*
X177393241Y-93627363D01*
X177193363Y-93827241D01*
X177036320Y-94062273D01*
X176928147Y-94323426D01*
X176873000Y-94600665D01*
X176873000Y-94883335D01*
X176909312Y-95065887D01*
X176868198Y-95107001D01*
X175950324Y-95107001D01*
X175912999Y-95103325D01*
X175875674Y-95107001D01*
X175875666Y-95107001D01*
X175764013Y-95117998D01*
X175620752Y-95161455D01*
X175488723Y-95232027D01*
X175372998Y-95327000D01*
X175349200Y-95355998D01*
X173987003Y-96718196D01*
X173957999Y-96741999D01*
X173902871Y-96809174D01*
X173863026Y-96857724D01*
X173811030Y-96955001D01*
X173792454Y-96989754D01*
X173748997Y-97133015D01*
X173738000Y-97244668D01*
X173738000Y-97244678D01*
X173734324Y-97282000D01*
X173738000Y-97319322D01*
X173738001Y-104448567D01*
X171730982Y-106455586D01*
X171602759Y-106327363D01*
X171367727Y-106170320D01*
X171357135Y-106165933D01*
X171543131Y-106054385D01*
X171751519Y-105865414D01*
X171919037Y-105639420D01*
X172039246Y-105385087D01*
X172079904Y-105251039D01*
X171957915Y-105029000D01*
X170815000Y-105029000D01*
X170815000Y-105049000D01*
X170561000Y-105049000D01*
X170561000Y-105029000D01*
X169418085Y-105029000D01*
X169296096Y-105251039D01*
X169336754Y-105385087D01*
X169456963Y-105639420D01*
X169624481Y-105865414D01*
X169832869Y-106054385D01*
X170018865Y-106165933D01*
X170008273Y-106170320D01*
X169773241Y-106327363D01*
X169573363Y-106527241D01*
X169416320Y-106762273D01*
X169308147Y-107023426D01*
X169253000Y-107300665D01*
X169253000Y-107583335D01*
X169308147Y-107860574D01*
X169416320Y-108121727D01*
X169573363Y-108356759D01*
X169773241Y-108556637D01*
X170005759Y-108712000D01*
X169773241Y-108867363D01*
X169573363Y-109067241D01*
X169416320Y-109302273D01*
X169308147Y-109563426D01*
X169253000Y-109840665D01*
X169253000Y-110123335D01*
X169308147Y-110400574D01*
X169416320Y-110661727D01*
X169573363Y-110896759D01*
X169773241Y-111096637D01*
X170005759Y-111252000D01*
X169773241Y-111407363D01*
X169573363Y-111607241D01*
X169416320Y-111842273D01*
X169308147Y-112103426D01*
X169253000Y-112380665D01*
X169253000Y-112663335D01*
X169308147Y-112940574D01*
X169416320Y-113201727D01*
X169573363Y-113436759D01*
X169773241Y-113636637D01*
X170008273Y-113793680D01*
X170018865Y-113798067D01*
X169832869Y-113909615D01*
X169624481Y-114098586D01*
X169456963Y-114324580D01*
X169425965Y-114390164D01*
X166225802Y-111190003D01*
X166201999Y-111160999D01*
X166086274Y-111066026D01*
X165954245Y-110995454D01*
X165810984Y-110951997D01*
X165699331Y-110941000D01*
X165699320Y-110941000D01*
X165661998Y-110937324D01*
X165624676Y-110941000D01*
X164578072Y-110941000D01*
X164578072Y-110851000D01*
X164565812Y-110726518D01*
X164529502Y-110606820D01*
X164470537Y-110496506D01*
X164416778Y-110431000D01*
X164470537Y-110365494D01*
X164529502Y-110255180D01*
X164565812Y-110135482D01*
X164578072Y-110011000D01*
X164575000Y-109446750D01*
X164416250Y-109288000D01*
X159963750Y-109288000D01*
X159805000Y-109446750D01*
X159801928Y-110011000D01*
X159814188Y-110135482D01*
X159850498Y-110255180D01*
X159909463Y-110365494D01*
X159963222Y-110431000D01*
X159909463Y-110496506D01*
X159850498Y-110606820D01*
X159814188Y-110726518D01*
X159801928Y-110851000D01*
X159801928Y-112551000D01*
X159814188Y-112675482D01*
X159850498Y-112795180D01*
X159909463Y-112905494D01*
X159963222Y-112971000D01*
X159909463Y-113036506D01*
X159850498Y-113146820D01*
X159814188Y-113266518D01*
X159801928Y-113391000D01*
X159801928Y-115091000D01*
X159814188Y-115215482D01*
X159850498Y-115335180D01*
X159909463Y-115445494D01*
X159988815Y-115542185D01*
X160085506Y-115621537D01*
X160195820Y-115680502D01*
X160315518Y-115716812D01*
X160440000Y-115729072D01*
X161703271Y-115729072D01*
X162301218Y-116327020D01*
X156428072Y-116327020D01*
X156428072Y-113161000D01*
X156415812Y-113036518D01*
X156379502Y-112916820D01*
X156320537Y-112806506D01*
X156241185Y-112709815D01*
X156144494Y-112630463D01*
X156034180Y-112571498D01*
X155914482Y-112535188D01*
X155790000Y-112522928D01*
X154090000Y-112522928D01*
X153965518Y-112535188D01*
X153845820Y-112571498D01*
X153735506Y-112630463D01*
X153670000Y-112684222D01*
X153604494Y-112630463D01*
X153494180Y-112571498D01*
X153374482Y-112535188D01*
X153250000Y-112522928D01*
X152685750Y-112526000D01*
X152527000Y-112684750D01*
X152527000Y-115058000D01*
X152273000Y-115058000D01*
X152273000Y-112684750D01*
X152114250Y-112526000D01*
X151550000Y-112522928D01*
X151425518Y-112535188D01*
X151305820Y-112571498D01*
X151195506Y-112630463D01*
X151130000Y-112684222D01*
X151064494Y-112630463D01*
X150954180Y-112571498D01*
X150834482Y-112535188D01*
X150710000Y-112522928D01*
X149010000Y-112522928D01*
X148885518Y-112535188D01*
X148765820Y-112571498D01*
X148655506Y-112630463D01*
X148558815Y-112709815D01*
X148479463Y-112806506D01*
X148420498Y-112916820D01*
X148384188Y-113036518D01*
X148371928Y-113161000D01*
X148371928Y-116327020D01*
X146670822Y-116327020D01*
X144998072Y-114654271D01*
X144998072Y-113391000D01*
X144985812Y-113266518D01*
X144949502Y-113146820D01*
X144890537Y-113036506D01*
X144836778Y-112971000D01*
X144890537Y-112905494D01*
X144949502Y-112795180D01*
X144985812Y-112675482D01*
X144998072Y-112551000D01*
X144998072Y-110851000D01*
X144985812Y-110726518D01*
X144949502Y-110606820D01*
X144890537Y-110496506D01*
X144836778Y-110431000D01*
X144890537Y-110365494D01*
X144949502Y-110255180D01*
X144985812Y-110135482D01*
X144998072Y-110011000D01*
X144995000Y-109446750D01*
X144836250Y-109288000D01*
X140383750Y-109288000D01*
X140225000Y-109446750D01*
X140221928Y-110011000D01*
X140234188Y-110135482D01*
X140270498Y-110255180D01*
X140329463Y-110365494D01*
X140383222Y-110431000D01*
X140329463Y-110496506D01*
X140270498Y-110606820D01*
X140234188Y-110726518D01*
X140221928Y-110851000D01*
X140221928Y-112369269D01*
X140024002Y-112567195D01*
X139994998Y-112590998D01*
X139948520Y-112647632D01*
X139900025Y-112706723D01*
X139846690Y-112806506D01*
X139829453Y-112838753D01*
X139785996Y-112982014D01*
X139774999Y-113093667D01*
X139774999Y-113093677D01*
X139771323Y-113130999D01*
X139774999Y-113168322D01*
X139775000Y-115313669D01*
X139771323Y-115351001D01*
X139775000Y-115388334D01*
X139775316Y-115391537D01*
X139785997Y-115499986D01*
X139829453Y-115643247D01*
X139900025Y-115775277D01*
X139941387Y-115825676D01*
X139994999Y-115891002D01*
X140023997Y-115914800D01*
X142877200Y-118768004D01*
X142900998Y-118797002D01*
X142929996Y-118820800D01*
X143016723Y-118891975D01*
X143148752Y-118962547D01*
X143292013Y-119006004D01*
X143440999Y-119020678D01*
X143478332Y-119017001D01*
X186560679Y-119017001D01*
X186598001Y-119020677D01*
X186635323Y-119017001D01*
X186635334Y-119017001D01*
X186746987Y-119006004D01*
X186890248Y-118962547D01*
X187022277Y-118891975D01*
X187138002Y-118797002D01*
X187161805Y-118767998D01*
X189045596Y-116884208D01*
X189010067Y-117246558D01*
X188818228Y-117881958D01*
X188506630Y-118467991D01*
X188087130Y-118982347D01*
X187575725Y-119405419D01*
X186991878Y-119721103D01*
X186357830Y-119917375D01*
X185666845Y-119990000D01*
X136176278Y-119990000D01*
X135483442Y-119922067D01*
X134848042Y-119730228D01*
X134262009Y-119418630D01*
X133747653Y-118999130D01*
X133324581Y-118487725D01*
X133008897Y-117903878D01*
X132812625Y-117269830D01*
X132740000Y-116578845D01*
X132740000Y-116365872D01*
X134163000Y-116365872D01*
X134163000Y-116806128D01*
X134248890Y-117237925D01*
X134417369Y-117644669D01*
X134661962Y-118010729D01*
X134973271Y-118322038D01*
X135339331Y-118566631D01*
X135746075Y-118735110D01*
X136177872Y-118821000D01*
X136618128Y-118821000D01*
X137049925Y-118735110D01*
X137456669Y-118566631D01*
X137822729Y-118322038D01*
X138134038Y-118010729D01*
X138378631Y-117644669D01*
X138547110Y-117237925D01*
X138633000Y-116806128D01*
X138633000Y-116365872D01*
X138547110Y-115934075D01*
X138378631Y-115527331D01*
X138134038Y-115161271D01*
X137822729Y-114849962D01*
X137456669Y-114605369D01*
X137049925Y-114436890D01*
X136618128Y-114351000D01*
X136177872Y-114351000D01*
X135746075Y-114436890D01*
X135339331Y-114605369D01*
X134973271Y-114849962D01*
X134661962Y-115161271D01*
X134417369Y-115527331D01*
X134248890Y-115934075D01*
X134163000Y-116365872D01*
X132740000Y-116365872D01*
X132740000Y-97311000D01*
X140221928Y-97311000D01*
X140234188Y-97435482D01*
X140270498Y-97555180D01*
X140329463Y-97665494D01*
X140383222Y-97731000D01*
X140329463Y-97796506D01*
X140270498Y-97906820D01*
X140234188Y-98026518D01*
X140221928Y-98151000D01*
X140221928Y-99851000D01*
X140234188Y-99975482D01*
X140270498Y-100095180D01*
X140329463Y-100205494D01*
X140383222Y-100271000D01*
X140329463Y-100336506D01*
X140270498Y-100446820D01*
X140234188Y-100566518D01*
X140221928Y-100691000D01*
X140221928Y-102391000D01*
X140234188Y-102515482D01*
X140270498Y-102635180D01*
X140329463Y-102745494D01*
X140383222Y-102811000D01*
X140329463Y-102876506D01*
X140270498Y-102986820D01*
X140234188Y-103106518D01*
X140221928Y-103231000D01*
X140221928Y-104931000D01*
X140234188Y-105055482D01*
X140270498Y-105175180D01*
X140329463Y-105285494D01*
X140383222Y-105351000D01*
X140329463Y-105416506D01*
X140270498Y-105526820D01*
X140234188Y-105646518D01*
X140221928Y-105771000D01*
X140221928Y-107471000D01*
X140234188Y-107595482D01*
X140270498Y-107715180D01*
X140329463Y-107825494D01*
X140383222Y-107891000D01*
X140329463Y-107956506D01*
X140270498Y-108066820D01*
X140234188Y-108186518D01*
X140221928Y-108311000D01*
X140225000Y-108875250D01*
X140383750Y-109034000D01*
X144836250Y-109034000D01*
X144995000Y-108875250D01*
X144998072Y-108311000D01*
X144985812Y-108186518D01*
X144949502Y-108066820D01*
X144890537Y-107956506D01*
X144836778Y-107891000D01*
X144890537Y-107825494D01*
X144949502Y-107715180D01*
X144985812Y-107595482D01*
X144998072Y-107471000D01*
X144998072Y-105771000D01*
X144985812Y-105646518D01*
X144949502Y-105526820D01*
X144890537Y-105416506D01*
X144836778Y-105351000D01*
X144890537Y-105285494D01*
X144949502Y-105175180D01*
X144985812Y-105055482D01*
X144998072Y-104931000D01*
X144998072Y-103231000D01*
X144985812Y-103106518D01*
X144949502Y-102986820D01*
X144890537Y-102876506D01*
X144836778Y-102811000D01*
X144890537Y-102745494D01*
X144949502Y-102635180D01*
X144985812Y-102515482D01*
X144998072Y-102391000D01*
X144998072Y-100691000D01*
X144985812Y-100566518D01*
X144949502Y-100446820D01*
X144890537Y-100336506D01*
X144836778Y-100271000D01*
X144890537Y-100205494D01*
X144949502Y-100095180D01*
X144985812Y-99975482D01*
X144998072Y-99851000D01*
X144998072Y-98151000D01*
X144985812Y-98026518D01*
X144949502Y-97906820D01*
X144890537Y-97796506D01*
X144836778Y-97731000D01*
X144890537Y-97665494D01*
X144949502Y-97555180D01*
X144985812Y-97435482D01*
X144998072Y-97311000D01*
X159801928Y-97311000D01*
X159814188Y-97435482D01*
X159850498Y-97555180D01*
X159909463Y-97665494D01*
X159963222Y-97731000D01*
X159909463Y-97796506D01*
X159850498Y-97906820D01*
X159814188Y-98026518D01*
X159801928Y-98151000D01*
X159801928Y-99851000D01*
X159814188Y-99975482D01*
X159850498Y-100095180D01*
X159909463Y-100205494D01*
X159963222Y-100271000D01*
X159909463Y-100336506D01*
X159850498Y-100446820D01*
X159814188Y-100566518D01*
X159801928Y-100691000D01*
X159801928Y-102391000D01*
X159814188Y-102515482D01*
X159850498Y-102635180D01*
X159909463Y-102745494D01*
X159963222Y-102811000D01*
X159909463Y-102876506D01*
X159850498Y-102986820D01*
X159814188Y-103106518D01*
X159801928Y-103231000D01*
X159801928Y-104931000D01*
X159814188Y-105055482D01*
X159850498Y-105175180D01*
X159909463Y-105285494D01*
X159963222Y-105351000D01*
X159909463Y-105416506D01*
X159850498Y-105526820D01*
X159814188Y-105646518D01*
X159801928Y-105771000D01*
X159801928Y-107471000D01*
X159814188Y-107595482D01*
X159850498Y-107715180D01*
X159909463Y-107825494D01*
X159963222Y-107891000D01*
X159909463Y-107956506D01*
X159850498Y-108066820D01*
X159814188Y-108186518D01*
X159801928Y-108311000D01*
X159805000Y-108875250D01*
X159963750Y-109034000D01*
X164416250Y-109034000D01*
X164575000Y-108875250D01*
X164578072Y-108311000D01*
X164565812Y-108186518D01*
X164529502Y-108066820D01*
X164470537Y-107956506D01*
X164416778Y-107891000D01*
X164470537Y-107825494D01*
X164529502Y-107715180D01*
X164565812Y-107595482D01*
X164578072Y-107471000D01*
X164578072Y-105771000D01*
X164565812Y-105646518D01*
X164529502Y-105526820D01*
X164470537Y-105416506D01*
X164416778Y-105351000D01*
X164470537Y-105285494D01*
X164529502Y-105175180D01*
X164565812Y-105055482D01*
X164578072Y-104931000D01*
X164578072Y-103231000D01*
X164565812Y-103106518D01*
X164529502Y-102986820D01*
X164470537Y-102876506D01*
X164416778Y-102811000D01*
X164470537Y-102745494D01*
X164488953Y-102711039D01*
X169296096Y-102711039D01*
X169336754Y-102845087D01*
X169456963Y-103099420D01*
X169624481Y-103325414D01*
X169832869Y-103514385D01*
X170028982Y-103632000D01*
X169832869Y-103749615D01*
X169624481Y-103938586D01*
X169456963Y-104164580D01*
X169336754Y-104418913D01*
X169296096Y-104552961D01*
X169418085Y-104775000D01*
X170561000Y-104775000D01*
X170561000Y-102489000D01*
X170815000Y-102489000D01*
X170815000Y-104775000D01*
X171957915Y-104775000D01*
X172079904Y-104552961D01*
X172039246Y-104418913D01*
X171919037Y-104164580D01*
X171751519Y-103938586D01*
X171543131Y-103749615D01*
X171347018Y-103632000D01*
X171543131Y-103514385D01*
X171751519Y-103325414D01*
X171919037Y-103099420D01*
X172039246Y-102845087D01*
X172079904Y-102711039D01*
X171957915Y-102489000D01*
X170815000Y-102489000D01*
X170561000Y-102489000D01*
X169418085Y-102489000D01*
X169296096Y-102711039D01*
X164488953Y-102711039D01*
X164529502Y-102635180D01*
X164565812Y-102515482D01*
X164578072Y-102391000D01*
X164578072Y-100691000D01*
X164565812Y-100566518D01*
X164529502Y-100446820D01*
X164470537Y-100336506D01*
X164416778Y-100271000D01*
X164470537Y-100205494D01*
X164488953Y-100171039D01*
X169296096Y-100171039D01*
X169336754Y-100305087D01*
X169456963Y-100559420D01*
X169624481Y-100785414D01*
X169832869Y-100974385D01*
X170028982Y-101092000D01*
X169832869Y-101209615D01*
X169624481Y-101398586D01*
X169456963Y-101624580D01*
X169336754Y-101878913D01*
X169296096Y-102012961D01*
X169418085Y-102235000D01*
X170561000Y-102235000D01*
X170561000Y-99949000D01*
X170815000Y-99949000D01*
X170815000Y-102235000D01*
X171957915Y-102235000D01*
X172079904Y-102012961D01*
X172039246Y-101878913D01*
X171919037Y-101624580D01*
X171751519Y-101398586D01*
X171543131Y-101209615D01*
X171347018Y-101092000D01*
X171543131Y-100974385D01*
X171751519Y-100785414D01*
X171919037Y-100559420D01*
X172039246Y-100305087D01*
X172079904Y-100171039D01*
X171957915Y-99949000D01*
X170815000Y-99949000D01*
X170561000Y-99949000D01*
X169418085Y-99949000D01*
X169296096Y-100171039D01*
X164488953Y-100171039D01*
X164529502Y-100095180D01*
X164565812Y-99975482D01*
X164578072Y-99851000D01*
X164578072Y-98151000D01*
X164565812Y-98026518D01*
X164529502Y-97906820D01*
X164470537Y-97796506D01*
X164416778Y-97731000D01*
X164470537Y-97665494D01*
X164529502Y-97555180D01*
X164565812Y-97435482D01*
X164578072Y-97311000D01*
X164575000Y-96746750D01*
X164416250Y-96588000D01*
X159963750Y-96588000D01*
X159805000Y-96746750D01*
X159801928Y-97311000D01*
X144998072Y-97311000D01*
X144995000Y-96746750D01*
X144836250Y-96588000D01*
X140383750Y-96588000D01*
X140225000Y-96746750D01*
X140221928Y-97311000D01*
X132740000Y-97311000D01*
X132740000Y-84611000D01*
X140221928Y-84611000D01*
X140234188Y-84735482D01*
X140270498Y-84855180D01*
X140329463Y-84965494D01*
X140383222Y-85031000D01*
X140329463Y-85096506D01*
X140270498Y-85206820D01*
X140234188Y-85326518D01*
X140221928Y-85451000D01*
X140221928Y-87151000D01*
X140234188Y-87275482D01*
X140270498Y-87395180D01*
X140329463Y-87505494D01*
X140383222Y-87571000D01*
X140329463Y-87636506D01*
X140270498Y-87746820D01*
X140234188Y-87866518D01*
X140221928Y-87991000D01*
X140221928Y-89691000D01*
X140234188Y-89815482D01*
X140270498Y-89935180D01*
X140329463Y-90045494D01*
X140383222Y-90111000D01*
X140329463Y-90176506D01*
X140270498Y-90286820D01*
X140234188Y-90406518D01*
X140221928Y-90531000D01*
X140221928Y-92231000D01*
X140234188Y-92355482D01*
X140270498Y-92475180D01*
X140329463Y-92585494D01*
X140383222Y-92651000D01*
X140329463Y-92716506D01*
X140270498Y-92826820D01*
X140234188Y-92946518D01*
X140221928Y-93071000D01*
X140221928Y-94771000D01*
X140234188Y-94895482D01*
X140270498Y-95015180D01*
X140329463Y-95125494D01*
X140383222Y-95191000D01*
X140329463Y-95256506D01*
X140270498Y-95366820D01*
X140234188Y-95486518D01*
X140221928Y-95611000D01*
X140225000Y-96175250D01*
X140383750Y-96334000D01*
X144836250Y-96334000D01*
X144995000Y-96175250D01*
X144998072Y-95611000D01*
X144985812Y-95486518D01*
X144949502Y-95366820D01*
X144890537Y-95256506D01*
X144836778Y-95191000D01*
X144890537Y-95125494D01*
X144949502Y-95015180D01*
X144985812Y-94895482D01*
X144998072Y-94771000D01*
X144998072Y-93071000D01*
X144985812Y-92946518D01*
X144949502Y-92826820D01*
X144890537Y-92716506D01*
X144836778Y-92651000D01*
X144890537Y-92585494D01*
X144949502Y-92475180D01*
X144985812Y-92355482D01*
X144998072Y-92231000D01*
X144998072Y-90531000D01*
X144985812Y-90406518D01*
X144949502Y-90286820D01*
X144890537Y-90176506D01*
X144836778Y-90111000D01*
X144890537Y-90045494D01*
X144949502Y-89935180D01*
X144985812Y-89815482D01*
X144998072Y-89691000D01*
X144998072Y-87991000D01*
X144985812Y-87866518D01*
X144949502Y-87746820D01*
X144890537Y-87636506D01*
X144836778Y-87571000D01*
X144890537Y-87505494D01*
X144949502Y-87395180D01*
X144985812Y-87275482D01*
X144998072Y-87151000D01*
X144998072Y-85451000D01*
X144985812Y-85326518D01*
X144949502Y-85206820D01*
X144890537Y-85096506D01*
X144836778Y-85031000D01*
X144890537Y-84965494D01*
X144949502Y-84855180D01*
X144985812Y-84735482D01*
X144998072Y-84611000D01*
X159801928Y-84611000D01*
X159814188Y-84735482D01*
X159850498Y-84855180D01*
X159909463Y-84965494D01*
X159963222Y-85031000D01*
X159909463Y-85096506D01*
X159850498Y-85206820D01*
X159814188Y-85326518D01*
X159801928Y-85451000D01*
X159801928Y-87151000D01*
X159814188Y-87275482D01*
X159850498Y-87395180D01*
X159909463Y-87505494D01*
X159963222Y-87571000D01*
X159909463Y-87636506D01*
X159850498Y-87746820D01*
X159814188Y-87866518D01*
X159801928Y-87991000D01*
X159801928Y-89691000D01*
X159814188Y-89815482D01*
X159850498Y-89935180D01*
X159909463Y-90045494D01*
X159963222Y-90111000D01*
X159909463Y-90176506D01*
X159850498Y-90286820D01*
X159814188Y-90406518D01*
X159801928Y-90531000D01*
X159801928Y-92231000D01*
X159814188Y-92355482D01*
X159850498Y-92475180D01*
X159909463Y-92585494D01*
X159963222Y-92651000D01*
X159909463Y-92716506D01*
X159850498Y-92826820D01*
X159814188Y-92946518D01*
X159801928Y-93071000D01*
X159801928Y-94771000D01*
X159814188Y-94895482D01*
X159850498Y-95015180D01*
X159909463Y-95125494D01*
X159963222Y-95191000D01*
X159909463Y-95256506D01*
X159850498Y-95366820D01*
X159814188Y-95486518D01*
X159801928Y-95611000D01*
X159805000Y-96175250D01*
X159963750Y-96334000D01*
X164416250Y-96334000D01*
X164575000Y-96175250D01*
X164578072Y-95611000D01*
X164565812Y-95486518D01*
X164529502Y-95366820D01*
X164470537Y-95256506D01*
X164416778Y-95191000D01*
X164470537Y-95125494D01*
X164529502Y-95015180D01*
X164565812Y-94895482D01*
X164578072Y-94771000D01*
X164578072Y-93071000D01*
X164565812Y-92946518D01*
X164529502Y-92826820D01*
X164470537Y-92716506D01*
X164416778Y-92651000D01*
X164470537Y-92585494D01*
X164529502Y-92475180D01*
X164565812Y-92355482D01*
X164578072Y-92231000D01*
X164578072Y-90531000D01*
X164565812Y-90406518D01*
X164529502Y-90286820D01*
X164470537Y-90176506D01*
X164416778Y-90111000D01*
X164470537Y-90045494D01*
X164529502Y-89935180D01*
X164565812Y-89815482D01*
X164578072Y-89691000D01*
X164578072Y-89601000D01*
X167485277Y-89601000D01*
X167530147Y-89826574D01*
X167638320Y-90087727D01*
X167795363Y-90322759D01*
X167995241Y-90522637D01*
X168150000Y-90626044D01*
X168150001Y-95466668D01*
X168146324Y-95504000D01*
X168160998Y-95652985D01*
X168204454Y-95796246D01*
X168275026Y-95928276D01*
X168328296Y-95993185D01*
X168370000Y-96044001D01*
X168398998Y-96067799D01*
X169289312Y-96958114D01*
X169253000Y-97140665D01*
X169253000Y-97423335D01*
X169308147Y-97700574D01*
X169416320Y-97961727D01*
X169573363Y-98196759D01*
X169773241Y-98396637D01*
X170008273Y-98553680D01*
X170018865Y-98558067D01*
X169832869Y-98669615D01*
X169624481Y-98858586D01*
X169456963Y-99084580D01*
X169336754Y-99338913D01*
X169296096Y-99472961D01*
X169418085Y-99695000D01*
X170561000Y-99695000D01*
X170561000Y-99675000D01*
X170815000Y-99675000D01*
X170815000Y-99695000D01*
X171957915Y-99695000D01*
X172079904Y-99472961D01*
X172039246Y-99338913D01*
X171919037Y-99084580D01*
X171751519Y-98858586D01*
X171543131Y-98669615D01*
X171357135Y-98558067D01*
X171367727Y-98553680D01*
X171602759Y-98396637D01*
X171802637Y-98196759D01*
X171959680Y-97961727D01*
X172067853Y-97700574D01*
X172123000Y-97423335D01*
X172123000Y-97140665D01*
X172067853Y-96863426D01*
X171959680Y-96602273D01*
X171802637Y-96367241D01*
X171604039Y-96168643D01*
X171612482Y-96167812D01*
X171732180Y-96131502D01*
X171842494Y-96072537D01*
X171939185Y-95993185D01*
X172018537Y-95896494D01*
X172077502Y-95786180D01*
X172113812Y-95666482D01*
X172126072Y-95542000D01*
X172126072Y-93942000D01*
X172113812Y-93817518D01*
X172077502Y-93697820D01*
X172018537Y-93587506D01*
X171939185Y-93490815D01*
X171842494Y-93411463D01*
X171732180Y-93352498D01*
X171612482Y-93316188D01*
X171488000Y-93303928D01*
X171448000Y-93303928D01*
X171448000Y-86651325D01*
X171451676Y-86614000D01*
X171448000Y-86576675D01*
X171448000Y-86576667D01*
X171437003Y-86465014D01*
X171393546Y-86321753D01*
X171322974Y-86189724D01*
X171228001Y-86073999D01*
X171199004Y-86050202D01*
X170308688Y-85159886D01*
X170345000Y-84977335D01*
X170345000Y-84694665D01*
X170289853Y-84417426D01*
X170181680Y-84156273D01*
X170024637Y-83921241D01*
X169824759Y-83721363D01*
X169589727Y-83564320D01*
X169328574Y-83456147D01*
X169051335Y-83401000D01*
X168768665Y-83401000D01*
X168491426Y-83456147D01*
X168230273Y-83564320D01*
X167995241Y-83721363D01*
X167795363Y-83921241D01*
X167638320Y-84156273D01*
X167530147Y-84417426D01*
X167475000Y-84694665D01*
X167475000Y-84977335D01*
X167511312Y-85159886D01*
X167130199Y-85541000D01*
X164578072Y-85541000D01*
X164578072Y-85451000D01*
X164565812Y-85326518D01*
X164529502Y-85206820D01*
X164470537Y-85096506D01*
X164416778Y-85031000D01*
X164470537Y-84965494D01*
X164529502Y-84855180D01*
X164565812Y-84735482D01*
X164578072Y-84611000D01*
X164575000Y-84046750D01*
X164416250Y-83888000D01*
X159963750Y-83888000D01*
X159805000Y-84046750D01*
X159801928Y-84611000D01*
X144998072Y-84611000D01*
X144995000Y-84046750D01*
X144836250Y-83888000D01*
X140383750Y-83888000D01*
X140225000Y-84046750D01*
X140221928Y-84611000D01*
X132740000Y-84611000D01*
X132740000Y-71911000D01*
X140221928Y-71911000D01*
X140234188Y-72035482D01*
X140270498Y-72155180D01*
X140329463Y-72265494D01*
X140383222Y-72331000D01*
X140329463Y-72396506D01*
X140270498Y-72506820D01*
X140234188Y-72626518D01*
X140221928Y-72751000D01*
X140221928Y-74451000D01*
X140234188Y-74575482D01*
X140270498Y-74695180D01*
X140329463Y-74805494D01*
X140383222Y-74871000D01*
X140329463Y-74936506D01*
X140270498Y-75046820D01*
X140234188Y-75166518D01*
X140221928Y-75291000D01*
X140221928Y-76991000D01*
X140234188Y-77115482D01*
X140270498Y-77235180D01*
X140329463Y-77345494D01*
X140383222Y-77411000D01*
X140329463Y-77476506D01*
X140270498Y-77586820D01*
X140234188Y-77706518D01*
X140221928Y-77831000D01*
X140221928Y-79531000D01*
X140234188Y-79655482D01*
X140270498Y-79775180D01*
X140329463Y-79885494D01*
X140383222Y-79951000D01*
X140329463Y-80016506D01*
X140270498Y-80126820D01*
X140234188Y-80246518D01*
X140221928Y-80371000D01*
X140221928Y-82071000D01*
X140234188Y-82195482D01*
X140270498Y-82315180D01*
X140329463Y-82425494D01*
X140383222Y-82491000D01*
X140329463Y-82556506D01*
X140270498Y-82666820D01*
X140234188Y-82786518D01*
X140221928Y-82911000D01*
X140225000Y-83475250D01*
X140383750Y-83634000D01*
X144836250Y-83634000D01*
X144995000Y-83475250D01*
X144998072Y-82911000D01*
X144985812Y-82786518D01*
X144949502Y-82666820D01*
X144890537Y-82556506D01*
X144836778Y-82491000D01*
X144890537Y-82425494D01*
X144949502Y-82315180D01*
X144985812Y-82195482D01*
X144998072Y-82071000D01*
X144998072Y-80371000D01*
X144985812Y-80246518D01*
X144949502Y-80126820D01*
X144890537Y-80016506D01*
X144836778Y-79951000D01*
X144890537Y-79885494D01*
X144949502Y-79775180D01*
X144985812Y-79655482D01*
X144998072Y-79531000D01*
X144998072Y-77831000D01*
X144985812Y-77706518D01*
X144949502Y-77586820D01*
X144890537Y-77476506D01*
X144836778Y-77411000D01*
X144890537Y-77345494D01*
X144949502Y-77235180D01*
X144985812Y-77115482D01*
X144998072Y-76991000D01*
X144998072Y-75291000D01*
X144985812Y-75166518D01*
X144949502Y-75046820D01*
X144890537Y-74936506D01*
X144836778Y-74871000D01*
X144890537Y-74805494D01*
X144949502Y-74695180D01*
X144985812Y-74575482D01*
X144998072Y-74451000D01*
X144998072Y-72751000D01*
X144985812Y-72626518D01*
X144949502Y-72506820D01*
X144890537Y-72396506D01*
X144836778Y-72331000D01*
X144890537Y-72265494D01*
X144949502Y-72155180D01*
X144985812Y-72035482D01*
X144998072Y-71911000D01*
X144995000Y-71346750D01*
X144836250Y-71188000D01*
X140383750Y-71188000D01*
X140225000Y-71346750D01*
X140221928Y-71911000D01*
X132740000Y-71911000D01*
X132740000Y-68359872D01*
X134163000Y-68359872D01*
X134163000Y-68800128D01*
X134248890Y-69231925D01*
X134417369Y-69638669D01*
X134661962Y-70004729D01*
X134973271Y-70316038D01*
X135339331Y-70560631D01*
X135746075Y-70729110D01*
X136177872Y-70815000D01*
X136618128Y-70815000D01*
X137049925Y-70729110D01*
X137456669Y-70560631D01*
X137822729Y-70316038D01*
X138134038Y-70004729D01*
X138378631Y-69638669D01*
X138547110Y-69231925D01*
X138633000Y-68800128D01*
X138633000Y-68359872D01*
X138547110Y-67928075D01*
X138378631Y-67521331D01*
X138134038Y-67155271D01*
X137822729Y-66843962D01*
X137456669Y-66599369D01*
X137049925Y-66430890D01*
X136618128Y-66345000D01*
X136177872Y-66345000D01*
X135746075Y-66430890D01*
X135339331Y-66599369D01*
X134973271Y-66843962D01*
X134661962Y-67155271D01*
X134417369Y-67521331D01*
X134248890Y-67928075D01*
X134163000Y-68359872D01*
X132740000Y-68359872D01*
X132740000Y-68358279D01*
X132807933Y-67665442D01*
X132999772Y-67030040D01*
X133311373Y-66444006D01*
X133730870Y-65929653D01*
X134242275Y-65506581D01*
X134826123Y-65190896D01*
X135460170Y-64994625D01*
X136151155Y-64922000D01*
X140259826Y-64922000D01*
X140234188Y-65006518D01*
G04 #@! TA.AperFunction,Conductor*
D21*
G36*
X140234188Y-65006518D02*
G01*
X140221928Y-65131000D01*
X140221928Y-66831000D01*
X140234188Y-66955482D01*
X140270498Y-67075180D01*
X140329463Y-67185494D01*
X140383222Y-67251000D01*
X140329463Y-67316506D01*
X140270498Y-67426820D01*
X140234188Y-67546518D01*
X140221928Y-67671000D01*
X140221928Y-69371000D01*
X140234188Y-69495482D01*
X140270498Y-69615180D01*
X140329463Y-69725494D01*
X140383222Y-69791000D01*
X140329463Y-69856506D01*
X140270498Y-69966820D01*
X140234188Y-70086518D01*
X140221928Y-70211000D01*
X140225000Y-70775250D01*
X140383750Y-70934000D01*
X144836250Y-70934000D01*
X144995000Y-70775250D01*
X144998072Y-70211000D01*
X144985812Y-70086518D01*
X144949502Y-69966820D01*
X144890537Y-69856506D01*
X144836778Y-69791000D01*
X144890537Y-69725494D01*
X144949502Y-69615180D01*
X144985812Y-69495482D01*
X144998072Y-69371000D01*
X144998072Y-68825999D01*
X148625524Y-68825999D01*
X148590000Y-69004589D01*
X148590000Y-69277411D01*
X148643225Y-69544989D01*
X148747629Y-69797043D01*
X148899201Y-70023886D01*
X149092114Y-70216799D01*
X149318957Y-70368371D01*
X149571011Y-70472775D01*
X149838589Y-70526000D01*
X150111411Y-70526000D01*
X150378989Y-70472775D01*
X150631043Y-70368371D01*
X150857886Y-70216799D01*
X151050799Y-70023886D01*
X151202371Y-69797043D01*
X151306775Y-69544989D01*
X151360000Y-69277411D01*
X151360000Y-69004589D01*
X151324476Y-68825999D01*
X153475524Y-68825999D01*
X153440000Y-69004589D01*
X153440000Y-69277411D01*
X153493225Y-69544989D01*
X153597629Y-69797043D01*
X153749201Y-70023886D01*
X153942114Y-70216799D01*
X154168957Y-70368371D01*
X154421011Y-70472775D01*
X154688589Y-70526000D01*
X154961411Y-70526000D01*
X155228989Y-70472775D01*
X155481043Y-70368371D01*
X155707886Y-70216799D01*
X155900799Y-70023886D01*
X156052371Y-69797043D01*
X156156775Y-69544989D01*
X156210000Y-69277411D01*
X156210000Y-69004589D01*
X156174476Y-68825999D01*
X158235196Y-68825999D01*
X159802923Y-70393727D01*
X159805000Y-70775250D01*
X159963750Y-70934000D01*
X164416250Y-70934000D01*
X164575000Y-70775250D01*
X164575704Y-70645999D01*
X165075198Y-70645999D01*
X172700198Y-78271000D01*
X172573740Y-78271000D01*
X172286842Y-78328068D01*
X172016589Y-78440010D01*
X171773368Y-78602525D01*
X171641513Y-78734380D01*
X171619502Y-78661820D01*
X171560537Y-78551506D01*
X171481185Y-78454815D01*
X171384494Y-78375463D01*
X171274180Y-78316498D01*
X171154482Y-78280188D01*
X171030000Y-78267928D01*
X170465750Y-78271000D01*
X170307000Y-78429750D01*
X170307000Y-79629000D01*
X170327000Y-79629000D01*
X170327000Y-79883000D01*
X170307000Y-79883000D01*
X170307000Y-79903000D01*
X170053000Y-79903000D01*
X170053000Y-79883000D01*
X168853750Y-79883000D01*
X168695000Y-80041750D01*
X168694296Y-80171001D01*
X167939806Y-80171001D01*
X166674805Y-78906000D01*
X168691928Y-78906000D01*
X168695000Y-79470250D01*
X168853750Y-79629000D01*
X170053000Y-79629000D01*
X170053000Y-78429750D01*
X169894250Y-78271000D01*
X169330000Y-78267928D01*
X169205518Y-78280188D01*
X169085820Y-78316498D01*
X168975506Y-78375463D01*
X168878815Y-78454815D01*
X168799463Y-78551506D01*
X168740498Y-78661820D01*
X168704188Y-78781518D01*
X168691928Y-78906000D01*
X166674805Y-78906000D01*
X164578072Y-76809268D01*
X164578072Y-75291000D01*
X164565812Y-75166518D01*
X164529502Y-75046820D01*
X164470537Y-74936506D01*
X164416778Y-74871000D01*
X164470537Y-74805494D01*
X164529502Y-74695180D01*
X164565812Y-74575482D01*
X164578072Y-74451000D01*
X164578072Y-72751000D01*
X164565812Y-72626518D01*
X164529502Y-72506820D01*
X164470537Y-72396506D01*
X164416778Y-72331000D01*
X164470537Y-72265494D01*
X164529502Y-72155180D01*
X164565812Y-72035482D01*
X164578072Y-71911000D01*
X164575000Y-71346750D01*
X164416250Y-71188000D01*
X159963750Y-71188000D01*
X159805000Y-71346750D01*
X159801928Y-71911000D01*
X159814188Y-72035482D01*
X159850498Y-72155180D01*
X159909463Y-72265494D01*
X159963222Y-72331000D01*
X159909463Y-72396506D01*
X159850498Y-72506820D01*
X159814188Y-72626518D01*
X159801928Y-72751000D01*
X159801928Y-74451000D01*
X159814188Y-74575482D01*
X159850498Y-74695180D01*
X159909463Y-74805494D01*
X159963222Y-74871000D01*
X159909463Y-74936506D01*
X159850498Y-75046820D01*
X159814188Y-75166518D01*
X159801928Y-75291000D01*
X159801928Y-76991000D01*
X159814188Y-77115482D01*
X159850498Y-77235180D01*
X159909463Y-77345494D01*
X159963222Y-77411000D01*
X159909463Y-77476506D01*
X159850498Y-77586820D01*
X159814188Y-77706518D01*
X159801928Y-77831000D01*
X159801928Y-79531000D01*
X159814188Y-79655482D01*
X159850498Y-79775180D01*
X159909463Y-79885494D01*
X159963222Y-79951000D01*
X159909463Y-80016506D01*
X159850498Y-80126820D01*
X159814188Y-80246518D01*
X159801928Y-80371000D01*
X159801928Y-82071000D01*
X159814188Y-82195482D01*
X159850498Y-82315180D01*
X159909463Y-82425494D01*
X159963222Y-82491000D01*
X159909463Y-82556506D01*
X159850498Y-82666820D01*
X159814188Y-82786518D01*
X159801928Y-82911000D01*
X159805000Y-83475250D01*
X159963750Y-83634000D01*
X164416250Y-83634000D01*
X164575000Y-83475250D01*
X164578072Y-82911000D01*
X164565812Y-82786518D01*
X164529502Y-82666820D01*
X164470537Y-82556506D01*
X164416778Y-82491000D01*
X164470537Y-82425494D01*
X164529502Y-82315180D01*
X164565812Y-82195482D01*
X164578072Y-82071000D01*
X164578072Y-80371000D01*
X164565812Y-80246518D01*
X164529502Y-80126820D01*
X164470537Y-80016506D01*
X164416778Y-79951000D01*
X164470537Y-79885494D01*
X164529502Y-79775180D01*
X164565812Y-79655482D01*
X164578072Y-79531000D01*
X164578072Y-78958872D01*
X167061208Y-81442009D01*
X167085002Y-81471002D01*
X167113995Y-81494796D01*
X167113999Y-81494800D01*
X167184688Y-81552812D01*
X167200727Y-81565975D01*
X167332756Y-81636547D01*
X167476017Y-81680004D01*
X167587670Y-81691001D01*
X167587679Y-81691001D01*
X167625002Y-81694677D01*
X167662325Y-81691001D01*
X171507677Y-81691001D01*
X171544999Y-81694677D01*
X171582321Y-81691001D01*
X171582332Y-81691001D01*
X171693985Y-81680004D01*
X171837246Y-81636547D01*
X171969275Y-81565975D01*
X172085000Y-81471002D01*
X172108803Y-81441998D01*
X172353592Y-81197209D01*
X172573740Y-81241000D01*
X172866260Y-81241000D01*
X173153158Y-81183932D01*
X173194597Y-81166768D01*
X177374830Y-85347002D01*
X177398629Y-85376001D01*
X177427627Y-85399799D01*
X177514353Y-85470974D01*
X177615426Y-85524999D01*
X177646383Y-85541546D01*
X177789644Y-85585003D01*
X177848481Y-85590798D01*
X177955363Y-85750759D01*
X178155241Y-85950637D01*
X178310001Y-86054044D01*
X178310000Y-88189956D01*
X178155241Y-88293363D01*
X177955363Y-88493241D01*
X177798320Y-88728273D01*
X177690147Y-88989426D01*
X177635000Y-89266665D01*
X177635000Y-89549335D01*
X177673862Y-89744705D01*
X177673026Y-89745724D01*
X177602454Y-89877754D01*
X177558998Y-90021015D01*
X177544324Y-90170000D01*
X177548001Y-90207332D01*
X177548000Y-93523956D01*
X177393241Y-93627363D01*
X177193363Y-93827241D01*
X177036320Y-94062273D01*
X176928147Y-94323426D01*
X176873000Y-94600665D01*
X176873000Y-94883335D01*
X176909312Y-95065887D01*
X176868198Y-95107001D01*
X175950324Y-95107001D01*
X175912999Y-95103325D01*
X175875674Y-95107001D01*
X175875666Y-95107001D01*
X175764013Y-95117998D01*
X175620752Y-95161455D01*
X175488723Y-95232027D01*
X175372998Y-95327000D01*
X175349200Y-95355998D01*
X173987003Y-96718196D01*
X173957999Y-96741999D01*
X173902871Y-96809174D01*
X173863026Y-96857724D01*
X173811030Y-96955001D01*
X173792454Y-96989754D01*
X173748997Y-97133015D01*
X173738000Y-97244668D01*
X173738000Y-97244678D01*
X173734324Y-97282000D01*
X173738000Y-97319322D01*
X173738001Y-104448567D01*
X171730982Y-106455586D01*
X171602759Y-106327363D01*
X171367727Y-106170320D01*
X171357135Y-106165933D01*
X171543131Y-106054385D01*
X171751519Y-105865414D01*
X171919037Y-105639420D01*
X172039246Y-105385087D01*
X172079904Y-105251039D01*
X171957915Y-105029000D01*
X170815000Y-105029000D01*
X170815000Y-105049000D01*
X170561000Y-105049000D01*
X170561000Y-105029000D01*
X169418085Y-105029000D01*
X169296096Y-105251039D01*
X169336754Y-105385087D01*
X169456963Y-105639420D01*
X169624481Y-105865414D01*
X169832869Y-106054385D01*
X170018865Y-106165933D01*
X170008273Y-106170320D01*
X169773241Y-106327363D01*
X169573363Y-106527241D01*
X169416320Y-106762273D01*
X169308147Y-107023426D01*
X169253000Y-107300665D01*
X169253000Y-107583335D01*
X169308147Y-107860574D01*
X169416320Y-108121727D01*
X169573363Y-108356759D01*
X169773241Y-108556637D01*
X170005759Y-108712000D01*
X169773241Y-108867363D01*
X169573363Y-109067241D01*
X169416320Y-109302273D01*
X169308147Y-109563426D01*
X169253000Y-109840665D01*
X169253000Y-110123335D01*
X169308147Y-110400574D01*
X169416320Y-110661727D01*
X169573363Y-110896759D01*
X169773241Y-111096637D01*
X170005759Y-111252000D01*
X169773241Y-111407363D01*
X169573363Y-111607241D01*
X169416320Y-111842273D01*
X169308147Y-112103426D01*
X169253000Y-112380665D01*
X169253000Y-112663335D01*
X169308147Y-112940574D01*
X169416320Y-113201727D01*
X169573363Y-113436759D01*
X169773241Y-113636637D01*
X170008273Y-113793680D01*
X170018865Y-113798067D01*
X169832869Y-113909615D01*
X169624481Y-114098586D01*
X169456963Y-114324580D01*
X169425965Y-114390164D01*
X166225802Y-111190003D01*
X166201999Y-111160999D01*
X166086274Y-111066026D01*
X165954245Y-110995454D01*
X165810984Y-110951997D01*
X165699331Y-110941000D01*
X165699320Y-110941000D01*
X165661998Y-110937324D01*
X165624676Y-110941000D01*
X164578072Y-110941000D01*
X164578072Y-110851000D01*
X164565812Y-110726518D01*
X164529502Y-110606820D01*
X164470537Y-110496506D01*
X164416778Y-110431000D01*
X164470537Y-110365494D01*
X164529502Y-110255180D01*
X164565812Y-110135482D01*
X164578072Y-110011000D01*
X164575000Y-109446750D01*
X164416250Y-109288000D01*
X159963750Y-109288000D01*
X159805000Y-109446750D01*
X159801928Y-110011000D01*
X159814188Y-110135482D01*
X159850498Y-110255180D01*
X159909463Y-110365494D01*
X159963222Y-110431000D01*
X159909463Y-110496506D01*
X159850498Y-110606820D01*
X159814188Y-110726518D01*
X159801928Y-110851000D01*
X159801928Y-112551000D01*
X159814188Y-112675482D01*
X159850498Y-112795180D01*
X159909463Y-112905494D01*
X159963222Y-112971000D01*
X159909463Y-113036506D01*
X159850498Y-113146820D01*
X159814188Y-113266518D01*
X159801928Y-113391000D01*
X159801928Y-115091000D01*
X159814188Y-115215482D01*
X159850498Y-115335180D01*
X159909463Y-115445494D01*
X159988815Y-115542185D01*
X160085506Y-115621537D01*
X160195820Y-115680502D01*
X160315518Y-115716812D01*
X160440000Y-115729072D01*
X161703271Y-115729072D01*
X162301218Y-116327020D01*
X156428072Y-116327020D01*
X156428072Y-113161000D01*
X156415812Y-113036518D01*
X156379502Y-112916820D01*
X156320537Y-112806506D01*
X156241185Y-112709815D01*
X156144494Y-112630463D01*
X156034180Y-112571498D01*
X155914482Y-112535188D01*
X155790000Y-112522928D01*
X154090000Y-112522928D01*
X153965518Y-112535188D01*
X153845820Y-112571498D01*
X153735506Y-112630463D01*
X153670000Y-112684222D01*
X153604494Y-112630463D01*
X153494180Y-112571498D01*
X153374482Y-112535188D01*
X153250000Y-112522928D01*
X152685750Y-112526000D01*
X152527000Y-112684750D01*
X152527000Y-115058000D01*
X152273000Y-115058000D01*
X152273000Y-112684750D01*
X152114250Y-112526000D01*
X151550000Y-112522928D01*
X151425518Y-112535188D01*
X151305820Y-112571498D01*
X151195506Y-112630463D01*
X151130000Y-112684222D01*
X151064494Y-112630463D01*
X150954180Y-112571498D01*
X150834482Y-112535188D01*
X150710000Y-112522928D01*
X149010000Y-112522928D01*
X148885518Y-112535188D01*
X148765820Y-112571498D01*
X148655506Y-112630463D01*
X148558815Y-112709815D01*
X148479463Y-112806506D01*
X148420498Y-112916820D01*
X148384188Y-113036518D01*
X148371928Y-113161000D01*
X148371928Y-116327020D01*
X146670822Y-116327020D01*
X144998072Y-114654271D01*
X144998072Y-113391000D01*
X144985812Y-113266518D01*
X144949502Y-113146820D01*
X144890537Y-113036506D01*
X144836778Y-112971000D01*
X144890537Y-112905494D01*
X144949502Y-112795180D01*
X144985812Y-112675482D01*
X144998072Y-112551000D01*
X144998072Y-110851000D01*
X144985812Y-110726518D01*
X144949502Y-110606820D01*
X144890537Y-110496506D01*
X144836778Y-110431000D01*
X144890537Y-110365494D01*
X144949502Y-110255180D01*
X144985812Y-110135482D01*
X144998072Y-110011000D01*
X144995000Y-109446750D01*
X144836250Y-109288000D01*
X140383750Y-109288000D01*
X140225000Y-109446750D01*
X140221928Y-110011000D01*
X140234188Y-110135482D01*
X140270498Y-110255180D01*
X140329463Y-110365494D01*
X140383222Y-110431000D01*
X140329463Y-110496506D01*
X140270498Y-110606820D01*
X140234188Y-110726518D01*
X140221928Y-110851000D01*
X140221928Y-112369269D01*
X140024002Y-112567195D01*
X139994998Y-112590998D01*
X139948520Y-112647632D01*
X139900025Y-112706723D01*
X139846690Y-112806506D01*
X139829453Y-112838753D01*
X139785996Y-112982014D01*
X139774999Y-113093667D01*
X139774999Y-113093677D01*
X139771323Y-113130999D01*
X139774999Y-113168322D01*
X139775000Y-115313669D01*
X139771323Y-115351001D01*
X139775000Y-115388334D01*
X139775316Y-115391537D01*
X139785997Y-115499986D01*
X139829453Y-115643247D01*
X139900025Y-115775277D01*
X139941387Y-115825676D01*
X139994999Y-115891002D01*
X140023997Y-115914800D01*
X142877200Y-118768004D01*
X142900998Y-118797002D01*
X142929996Y-118820800D01*
X143016723Y-118891975D01*
X143148752Y-118962547D01*
X143292013Y-119006004D01*
X143440999Y-119020678D01*
X143478332Y-119017001D01*
X186560679Y-119017001D01*
X186598001Y-119020677D01*
X186635323Y-119017001D01*
X186635334Y-119017001D01*
X186746987Y-119006004D01*
X186890248Y-118962547D01*
X187022277Y-118891975D01*
X187138002Y-118797002D01*
X187161805Y-118767998D01*
X189045596Y-116884208D01*
X189010067Y-117246558D01*
X188818228Y-117881958D01*
X188506630Y-118467991D01*
X188087130Y-118982347D01*
X187575725Y-119405419D01*
X186991878Y-119721103D01*
X186357830Y-119917375D01*
X185666845Y-119990000D01*
X136176278Y-119990000D01*
X135483442Y-119922067D01*
X134848042Y-119730228D01*
X134262009Y-119418630D01*
X133747653Y-118999130D01*
X133324581Y-118487725D01*
X133008897Y-117903878D01*
X132812625Y-117269830D01*
X132740000Y-116578845D01*
X132740000Y-116365872D01*
X134163000Y-116365872D01*
X134163000Y-116806128D01*
X134248890Y-117237925D01*
X134417369Y-117644669D01*
X134661962Y-118010729D01*
X134973271Y-118322038D01*
X135339331Y-118566631D01*
X135746075Y-118735110D01*
X136177872Y-118821000D01*
X136618128Y-118821000D01*
X137049925Y-118735110D01*
X137456669Y-118566631D01*
X137822729Y-118322038D01*
X138134038Y-118010729D01*
X138378631Y-117644669D01*
X138547110Y-117237925D01*
X138633000Y-116806128D01*
X138633000Y-116365872D01*
X138547110Y-115934075D01*
X138378631Y-115527331D01*
X138134038Y-115161271D01*
X137822729Y-114849962D01*
X137456669Y-114605369D01*
X137049925Y-114436890D01*
X136618128Y-114351000D01*
X136177872Y-114351000D01*
X135746075Y-114436890D01*
X135339331Y-114605369D01*
X134973271Y-114849962D01*
X134661962Y-115161271D01*
X134417369Y-115527331D01*
X134248890Y-115934075D01*
X134163000Y-116365872D01*
X132740000Y-116365872D01*
X132740000Y-97311000D01*
X140221928Y-97311000D01*
X140234188Y-97435482D01*
X140270498Y-97555180D01*
X140329463Y-97665494D01*
X140383222Y-97731000D01*
X140329463Y-97796506D01*
X140270498Y-97906820D01*
X140234188Y-98026518D01*
X140221928Y-98151000D01*
X140221928Y-99851000D01*
X140234188Y-99975482D01*
X140270498Y-100095180D01*
X140329463Y-100205494D01*
X140383222Y-100271000D01*
X140329463Y-100336506D01*
X140270498Y-100446820D01*
X140234188Y-100566518D01*
X140221928Y-100691000D01*
X140221928Y-102391000D01*
X140234188Y-102515482D01*
X140270498Y-102635180D01*
X140329463Y-102745494D01*
X140383222Y-102811000D01*
X140329463Y-102876506D01*
X140270498Y-102986820D01*
X140234188Y-103106518D01*
X140221928Y-103231000D01*
X140221928Y-104931000D01*
X140234188Y-105055482D01*
X140270498Y-105175180D01*
X140329463Y-105285494D01*
X140383222Y-105351000D01*
X140329463Y-105416506D01*
X140270498Y-105526820D01*
X140234188Y-105646518D01*
X140221928Y-105771000D01*
X140221928Y-107471000D01*
X140234188Y-107595482D01*
X140270498Y-107715180D01*
X140329463Y-107825494D01*
X140383222Y-107891000D01*
X140329463Y-107956506D01*
X140270498Y-108066820D01*
X140234188Y-108186518D01*
X140221928Y-108311000D01*
X140225000Y-108875250D01*
X140383750Y-109034000D01*
X144836250Y-109034000D01*
X144995000Y-108875250D01*
X144998072Y-108311000D01*
X144985812Y-108186518D01*
X144949502Y-108066820D01*
X144890537Y-107956506D01*
X144836778Y-107891000D01*
X144890537Y-107825494D01*
X144949502Y-107715180D01*
X144985812Y-107595482D01*
X144998072Y-107471000D01*
X144998072Y-105771000D01*
X144985812Y-105646518D01*
X144949502Y-105526820D01*
X144890537Y-105416506D01*
X144836778Y-105351000D01*
X144890537Y-105285494D01*
X144949502Y-105175180D01*
X144985812Y-105055482D01*
X144998072Y-104931000D01*
X144998072Y-103231000D01*
X144985812Y-103106518D01*
X144949502Y-102986820D01*
X144890537Y-102876506D01*
X144836778Y-102811000D01*
X144890537Y-102745494D01*
X144949502Y-102635180D01*
X144985812Y-102515482D01*
X144998072Y-102391000D01*
X144998072Y-100691000D01*
X144985812Y-100566518D01*
X144949502Y-100446820D01*
X144890537Y-100336506D01*
X144836778Y-100271000D01*
X144890537Y-100205494D01*
X144949502Y-100095180D01*
X144985812Y-99975482D01*
X144998072Y-99851000D01*
X144998072Y-98151000D01*
X144985812Y-98026518D01*
X144949502Y-97906820D01*
X144890537Y-97796506D01*
X144836778Y-97731000D01*
X144890537Y-97665494D01*
X144949502Y-97555180D01*
X144985812Y-97435482D01*
X144998072Y-97311000D01*
X159801928Y-97311000D01*
X159814188Y-97435482D01*
X159850498Y-97555180D01*
X159909463Y-97665494D01*
X159963222Y-97731000D01*
X159909463Y-97796506D01*
X159850498Y-97906820D01*
X159814188Y-98026518D01*
X159801928Y-98151000D01*
X159801928Y-99851000D01*
X159814188Y-99975482D01*
X159850498Y-100095180D01*
X159909463Y-100205494D01*
X159963222Y-100271000D01*
X159909463Y-100336506D01*
X159850498Y-100446820D01*
X159814188Y-100566518D01*
X159801928Y-100691000D01*
X159801928Y-102391000D01*
X159814188Y-102515482D01*
X159850498Y-102635180D01*
X159909463Y-102745494D01*
X159963222Y-102811000D01*
X159909463Y-102876506D01*
X159850498Y-102986820D01*
X159814188Y-103106518D01*
X159801928Y-103231000D01*
X159801928Y-104931000D01*
X159814188Y-105055482D01*
X159850498Y-105175180D01*
X159909463Y-105285494D01*
X159963222Y-105351000D01*
X159909463Y-105416506D01*
X159850498Y-105526820D01*
X159814188Y-105646518D01*
X159801928Y-105771000D01*
X159801928Y-107471000D01*
X159814188Y-107595482D01*
X159850498Y-107715180D01*
X159909463Y-107825494D01*
X159963222Y-107891000D01*
X159909463Y-107956506D01*
X159850498Y-108066820D01*
X159814188Y-108186518D01*
X159801928Y-108311000D01*
X159805000Y-108875250D01*
X159963750Y-109034000D01*
X164416250Y-109034000D01*
X164575000Y-108875250D01*
X164578072Y-108311000D01*
X164565812Y-108186518D01*
X164529502Y-108066820D01*
X164470537Y-107956506D01*
X164416778Y-107891000D01*
X164470537Y-107825494D01*
X164529502Y-107715180D01*
X164565812Y-107595482D01*
X164578072Y-107471000D01*
X164578072Y-105771000D01*
X164565812Y-105646518D01*
X164529502Y-105526820D01*
X164470537Y-105416506D01*
X164416778Y-105351000D01*
X164470537Y-105285494D01*
X164529502Y-105175180D01*
X164565812Y-105055482D01*
X164578072Y-104931000D01*
X164578072Y-103231000D01*
X164565812Y-103106518D01*
X164529502Y-102986820D01*
X164470537Y-102876506D01*
X164416778Y-102811000D01*
X164470537Y-102745494D01*
X164488953Y-102711039D01*
X169296096Y-102711039D01*
X169336754Y-102845087D01*
X169456963Y-103099420D01*
X169624481Y-103325414D01*
X169832869Y-103514385D01*
X170028982Y-103632000D01*
X169832869Y-103749615D01*
X169624481Y-103938586D01*
X169456963Y-104164580D01*
X169336754Y-104418913D01*
X169296096Y-104552961D01*
X169418085Y-104775000D01*
X170561000Y-104775000D01*
X170561000Y-102489000D01*
X170815000Y-102489000D01*
X170815000Y-104775000D01*
X171957915Y-104775000D01*
X172079904Y-104552961D01*
X172039246Y-104418913D01*
X171919037Y-104164580D01*
X171751519Y-103938586D01*
X171543131Y-103749615D01*
X171347018Y-103632000D01*
X171543131Y-103514385D01*
X171751519Y-103325414D01*
X171919037Y-103099420D01*
X172039246Y-102845087D01*
X172079904Y-102711039D01*
X171957915Y-102489000D01*
X170815000Y-102489000D01*
X170561000Y-102489000D01*
X169418085Y-102489000D01*
X169296096Y-102711039D01*
X164488953Y-102711039D01*
X164529502Y-102635180D01*
X164565812Y-102515482D01*
X164578072Y-102391000D01*
X164578072Y-100691000D01*
X164565812Y-100566518D01*
X164529502Y-100446820D01*
X164470537Y-100336506D01*
X164416778Y-100271000D01*
X164470537Y-100205494D01*
X164488953Y-100171039D01*
X169296096Y-100171039D01*
X169336754Y-100305087D01*
X169456963Y-100559420D01*
X169624481Y-100785414D01*
X169832869Y-100974385D01*
X170028982Y-101092000D01*
X169832869Y-101209615D01*
X169624481Y-101398586D01*
X169456963Y-101624580D01*
X169336754Y-101878913D01*
X169296096Y-102012961D01*
X169418085Y-102235000D01*
X170561000Y-102235000D01*
X170561000Y-99949000D01*
X170815000Y-99949000D01*
X170815000Y-102235000D01*
X171957915Y-102235000D01*
X172079904Y-102012961D01*
X172039246Y-101878913D01*
X171919037Y-101624580D01*
X171751519Y-101398586D01*
X171543131Y-101209615D01*
X171347018Y-101092000D01*
X171543131Y-100974385D01*
X171751519Y-100785414D01*
X171919037Y-100559420D01*
X172039246Y-100305087D01*
X172079904Y-100171039D01*
X171957915Y-99949000D01*
X170815000Y-99949000D01*
X170561000Y-99949000D01*
X169418085Y-99949000D01*
X169296096Y-100171039D01*
X164488953Y-100171039D01*
X164529502Y-100095180D01*
X164565812Y-99975482D01*
X164578072Y-99851000D01*
X164578072Y-98151000D01*
X164565812Y-98026518D01*
X164529502Y-97906820D01*
X164470537Y-97796506D01*
X164416778Y-97731000D01*
X164470537Y-97665494D01*
X164529502Y-97555180D01*
X164565812Y-97435482D01*
X164578072Y-97311000D01*
X164575000Y-96746750D01*
X164416250Y-96588000D01*
X159963750Y-96588000D01*
X159805000Y-96746750D01*
X159801928Y-97311000D01*
X144998072Y-97311000D01*
X144995000Y-96746750D01*
X144836250Y-96588000D01*
X140383750Y-96588000D01*
X140225000Y-96746750D01*
X140221928Y-97311000D01*
X132740000Y-97311000D01*
X132740000Y-84611000D01*
X140221928Y-84611000D01*
X140234188Y-84735482D01*
X140270498Y-84855180D01*
X140329463Y-84965494D01*
X140383222Y-85031000D01*
X140329463Y-85096506D01*
X140270498Y-85206820D01*
X140234188Y-85326518D01*
X140221928Y-85451000D01*
X140221928Y-87151000D01*
X140234188Y-87275482D01*
X140270498Y-87395180D01*
X140329463Y-87505494D01*
X140383222Y-87571000D01*
X140329463Y-87636506D01*
X140270498Y-87746820D01*
X140234188Y-87866518D01*
X140221928Y-87991000D01*
X140221928Y-89691000D01*
X140234188Y-89815482D01*
X140270498Y-89935180D01*
X140329463Y-90045494D01*
X140383222Y-90111000D01*
X140329463Y-90176506D01*
X140270498Y-90286820D01*
X140234188Y-90406518D01*
X140221928Y-90531000D01*
X140221928Y-92231000D01*
X140234188Y-92355482D01*
X140270498Y-92475180D01*
X140329463Y-92585494D01*
X140383222Y-92651000D01*
X140329463Y-92716506D01*
X140270498Y-92826820D01*
X140234188Y-92946518D01*
X140221928Y-93071000D01*
X140221928Y-94771000D01*
X140234188Y-94895482D01*
X140270498Y-95015180D01*
X140329463Y-95125494D01*
X140383222Y-95191000D01*
X140329463Y-95256506D01*
X140270498Y-95366820D01*
X140234188Y-95486518D01*
X140221928Y-95611000D01*
X140225000Y-96175250D01*
X140383750Y-96334000D01*
X144836250Y-96334000D01*
X144995000Y-96175250D01*
X144998072Y-95611000D01*
X144985812Y-95486518D01*
X144949502Y-95366820D01*
X144890537Y-95256506D01*
X144836778Y-95191000D01*
X144890537Y-95125494D01*
X144949502Y-95015180D01*
X144985812Y-94895482D01*
X144998072Y-94771000D01*
X144998072Y-93071000D01*
X144985812Y-92946518D01*
X144949502Y-92826820D01*
X144890537Y-92716506D01*
X144836778Y-92651000D01*
X144890537Y-92585494D01*
X144949502Y-92475180D01*
X144985812Y-92355482D01*
X144998072Y-92231000D01*
X144998072Y-90531000D01*
X144985812Y-90406518D01*
X144949502Y-90286820D01*
X144890537Y-90176506D01*
X144836778Y-90111000D01*
X144890537Y-90045494D01*
X144949502Y-89935180D01*
X144985812Y-89815482D01*
X144998072Y-89691000D01*
X144998072Y-87991000D01*
X144985812Y-87866518D01*
X144949502Y-87746820D01*
X144890537Y-87636506D01*
X144836778Y-87571000D01*
X144890537Y-87505494D01*
X144949502Y-87395180D01*
X144985812Y-87275482D01*
X144998072Y-87151000D01*
X144998072Y-85451000D01*
X144985812Y-85326518D01*
X144949502Y-85206820D01*
X144890537Y-85096506D01*
X144836778Y-85031000D01*
X144890537Y-84965494D01*
X144949502Y-84855180D01*
X144985812Y-84735482D01*
X144998072Y-84611000D01*
X159801928Y-84611000D01*
X159814188Y-84735482D01*
X159850498Y-84855180D01*
X159909463Y-84965494D01*
X159963222Y-85031000D01*
X159909463Y-85096506D01*
X159850498Y-85206820D01*
X159814188Y-85326518D01*
X159801928Y-85451000D01*
X159801928Y-87151000D01*
X159814188Y-87275482D01*
X159850498Y-87395180D01*
X159909463Y-87505494D01*
X159963222Y-87571000D01*
X159909463Y-87636506D01*
X159850498Y-87746820D01*
X159814188Y-87866518D01*
X159801928Y-87991000D01*
X159801928Y-89691000D01*
X159814188Y-89815482D01*
X159850498Y-89935180D01*
X159909463Y-90045494D01*
X159963222Y-90111000D01*
X159909463Y-90176506D01*
X159850498Y-90286820D01*
X159814188Y-90406518D01*
X159801928Y-90531000D01*
X159801928Y-92231000D01*
X159814188Y-92355482D01*
X159850498Y-92475180D01*
X159909463Y-92585494D01*
X159963222Y-92651000D01*
X159909463Y-92716506D01*
X159850498Y-92826820D01*
X159814188Y-92946518D01*
X159801928Y-93071000D01*
X159801928Y-94771000D01*
X159814188Y-94895482D01*
X159850498Y-95015180D01*
X159909463Y-95125494D01*
X159963222Y-95191000D01*
X159909463Y-95256506D01*
X159850498Y-95366820D01*
X159814188Y-95486518D01*
X159801928Y-95611000D01*
X159805000Y-96175250D01*
X159963750Y-96334000D01*
X164416250Y-96334000D01*
X164575000Y-96175250D01*
X164578072Y-95611000D01*
X164565812Y-95486518D01*
X164529502Y-95366820D01*
X164470537Y-95256506D01*
X164416778Y-95191000D01*
X164470537Y-95125494D01*
X164529502Y-95015180D01*
X164565812Y-94895482D01*
X164578072Y-94771000D01*
X164578072Y-93071000D01*
X164565812Y-92946518D01*
X164529502Y-92826820D01*
X164470537Y-92716506D01*
X164416778Y-92651000D01*
X164470537Y-92585494D01*
X164529502Y-92475180D01*
X164565812Y-92355482D01*
X164578072Y-92231000D01*
X164578072Y-90531000D01*
X164565812Y-90406518D01*
X164529502Y-90286820D01*
X164470537Y-90176506D01*
X164416778Y-90111000D01*
X164470537Y-90045494D01*
X164529502Y-89935180D01*
X164565812Y-89815482D01*
X164578072Y-89691000D01*
X164578072Y-89601000D01*
X167485277Y-89601000D01*
X167530147Y-89826574D01*
X167638320Y-90087727D01*
X167795363Y-90322759D01*
X167995241Y-90522637D01*
X168150000Y-90626044D01*
X168150001Y-95466668D01*
X168146324Y-95504000D01*
X168160998Y-95652985D01*
X168204454Y-95796246D01*
X168275026Y-95928276D01*
X168328296Y-95993185D01*
X168370000Y-96044001D01*
X168398998Y-96067799D01*
X169289312Y-96958114D01*
X169253000Y-97140665D01*
X169253000Y-97423335D01*
X169308147Y-97700574D01*
X169416320Y-97961727D01*
X169573363Y-98196759D01*
X169773241Y-98396637D01*
X170008273Y-98553680D01*
X170018865Y-98558067D01*
X169832869Y-98669615D01*
X169624481Y-98858586D01*
X169456963Y-99084580D01*
X169336754Y-99338913D01*
X169296096Y-99472961D01*
X169418085Y-99695000D01*
X170561000Y-99695000D01*
X170561000Y-99675000D01*
X170815000Y-99675000D01*
X170815000Y-99695000D01*
X171957915Y-99695000D01*
X172079904Y-99472961D01*
X172039246Y-99338913D01*
X171919037Y-99084580D01*
X171751519Y-98858586D01*
X171543131Y-98669615D01*
X171357135Y-98558067D01*
X171367727Y-98553680D01*
X171602759Y-98396637D01*
X171802637Y-98196759D01*
X171959680Y-97961727D01*
X172067853Y-97700574D01*
X172123000Y-97423335D01*
X172123000Y-97140665D01*
X172067853Y-96863426D01*
X171959680Y-96602273D01*
X171802637Y-96367241D01*
X171604039Y-96168643D01*
X171612482Y-96167812D01*
X171732180Y-96131502D01*
X171842494Y-96072537D01*
X171939185Y-95993185D01*
X172018537Y-95896494D01*
X172077502Y-95786180D01*
X172113812Y-95666482D01*
X172126072Y-95542000D01*
X172126072Y-93942000D01*
X172113812Y-93817518D01*
X172077502Y-93697820D01*
X172018537Y-93587506D01*
X171939185Y-93490815D01*
X171842494Y-93411463D01*
X171732180Y-93352498D01*
X171612482Y-93316188D01*
X171488000Y-93303928D01*
X171448000Y-93303928D01*
X171448000Y-86651325D01*
X171451676Y-86614000D01*
X171448000Y-86576675D01*
X171448000Y-86576667D01*
X171437003Y-86465014D01*
X171393546Y-86321753D01*
X171322974Y-86189724D01*
X171228001Y-86073999D01*
X171199004Y-86050202D01*
X170308688Y-85159886D01*
X170345000Y-84977335D01*
X170345000Y-84694665D01*
X170289853Y-84417426D01*
X170181680Y-84156273D01*
X170024637Y-83921241D01*
X169824759Y-83721363D01*
X169589727Y-83564320D01*
X169328574Y-83456147D01*
X169051335Y-83401000D01*
X168768665Y-83401000D01*
X168491426Y-83456147D01*
X168230273Y-83564320D01*
X167995241Y-83721363D01*
X167795363Y-83921241D01*
X167638320Y-84156273D01*
X167530147Y-84417426D01*
X167475000Y-84694665D01*
X167475000Y-84977335D01*
X167511312Y-85159886D01*
X167130199Y-85541000D01*
X164578072Y-85541000D01*
X164578072Y-85451000D01*
X164565812Y-85326518D01*
X164529502Y-85206820D01*
X164470537Y-85096506D01*
X164416778Y-85031000D01*
X164470537Y-84965494D01*
X164529502Y-84855180D01*
X164565812Y-84735482D01*
X164578072Y-84611000D01*
X164575000Y-84046750D01*
X164416250Y-83888000D01*
X159963750Y-83888000D01*
X159805000Y-84046750D01*
X159801928Y-84611000D01*
X144998072Y-84611000D01*
X144995000Y-84046750D01*
X144836250Y-83888000D01*
X140383750Y-83888000D01*
X140225000Y-84046750D01*
X140221928Y-84611000D01*
X132740000Y-84611000D01*
X132740000Y-71911000D01*
X140221928Y-71911000D01*
X140234188Y-72035482D01*
X140270498Y-72155180D01*
X140329463Y-72265494D01*
X140383222Y-72331000D01*
X140329463Y-72396506D01*
X140270498Y-72506820D01*
X140234188Y-72626518D01*
X140221928Y-72751000D01*
X140221928Y-74451000D01*
X140234188Y-74575482D01*
X140270498Y-74695180D01*
X140329463Y-74805494D01*
X140383222Y-74871000D01*
X140329463Y-74936506D01*
X140270498Y-75046820D01*
X140234188Y-75166518D01*
X140221928Y-75291000D01*
X140221928Y-76991000D01*
X140234188Y-77115482D01*
X140270498Y-77235180D01*
X140329463Y-77345494D01*
X140383222Y-77411000D01*
X140329463Y-77476506D01*
X140270498Y-77586820D01*
X140234188Y-77706518D01*
X140221928Y-77831000D01*
X140221928Y-79531000D01*
X140234188Y-79655482D01*
X140270498Y-79775180D01*
X140329463Y-79885494D01*
X140383222Y-79951000D01*
X140329463Y-80016506D01*
X140270498Y-80126820D01*
X140234188Y-80246518D01*
X140221928Y-80371000D01*
X140221928Y-82071000D01*
X140234188Y-82195482D01*
X140270498Y-82315180D01*
X140329463Y-82425494D01*
X140383222Y-82491000D01*
X140329463Y-82556506D01*
X140270498Y-82666820D01*
X140234188Y-82786518D01*
X140221928Y-82911000D01*
X140225000Y-83475250D01*
X140383750Y-83634000D01*
X144836250Y-83634000D01*
X144995000Y-83475250D01*
X144998072Y-82911000D01*
X144985812Y-82786518D01*
X144949502Y-82666820D01*
X144890537Y-82556506D01*
X144836778Y-82491000D01*
X144890537Y-82425494D01*
X144949502Y-82315180D01*
X144985812Y-82195482D01*
X144998072Y-82071000D01*
X144998072Y-80371000D01*
X144985812Y-80246518D01*
X144949502Y-80126820D01*
X144890537Y-80016506D01*
X144836778Y-79951000D01*
X144890537Y-79885494D01*
X144949502Y-79775180D01*
X144985812Y-79655482D01*
X144998072Y-79531000D01*
X144998072Y-77831000D01*
X144985812Y-77706518D01*
X144949502Y-77586820D01*
X144890537Y-77476506D01*
X144836778Y-77411000D01*
X144890537Y-77345494D01*
X144949502Y-77235180D01*
X144985812Y-77115482D01*
X144998072Y-76991000D01*
X144998072Y-75291000D01*
X144985812Y-75166518D01*
X144949502Y-75046820D01*
X144890537Y-74936506D01*
X144836778Y-74871000D01*
X144890537Y-74805494D01*
X144949502Y-74695180D01*
X144985812Y-74575482D01*
X144998072Y-74451000D01*
X144998072Y-72751000D01*
X144985812Y-72626518D01*
X144949502Y-72506820D01*
X144890537Y-72396506D01*
X144836778Y-72331000D01*
X144890537Y-72265494D01*
X144949502Y-72155180D01*
X144985812Y-72035482D01*
X144998072Y-71911000D01*
X144995000Y-71346750D01*
X144836250Y-71188000D01*
X140383750Y-71188000D01*
X140225000Y-71346750D01*
X140221928Y-71911000D01*
X132740000Y-71911000D01*
X132740000Y-68359872D01*
X134163000Y-68359872D01*
X134163000Y-68800128D01*
X134248890Y-69231925D01*
X134417369Y-69638669D01*
X134661962Y-70004729D01*
X134973271Y-70316038D01*
X135339331Y-70560631D01*
X135746075Y-70729110D01*
X136177872Y-70815000D01*
X136618128Y-70815000D01*
X137049925Y-70729110D01*
X137456669Y-70560631D01*
X137822729Y-70316038D01*
X138134038Y-70004729D01*
X138378631Y-69638669D01*
X138547110Y-69231925D01*
X138633000Y-68800128D01*
X138633000Y-68359872D01*
X138547110Y-67928075D01*
X138378631Y-67521331D01*
X138134038Y-67155271D01*
X137822729Y-66843962D01*
X137456669Y-66599369D01*
X137049925Y-66430890D01*
X136618128Y-66345000D01*
X136177872Y-66345000D01*
X135746075Y-66430890D01*
X135339331Y-66599369D01*
X134973271Y-66843962D01*
X134661962Y-67155271D01*
X134417369Y-67521331D01*
X134248890Y-67928075D01*
X134163000Y-68359872D01*
X132740000Y-68359872D01*
X132740000Y-68358279D01*
X132807933Y-67665442D01*
X132999772Y-67030040D01*
X133311373Y-66444006D01*
X133730870Y-65929653D01*
X134242275Y-65506581D01*
X134826123Y-65190896D01*
X135460170Y-64994625D01*
X136151155Y-64922000D01*
X140259826Y-64922000D01*
X140234188Y-65006518D01*
G37*
G04 #@! TD.AperFunction*
D20*
X170815000Y-114935000D02*
X170835000Y-114935000D01*
X170835000Y-115189000D01*
X170815000Y-115189000D01*
X170815000Y-115209000D01*
X170561000Y-115209000D01*
X170561000Y-115189000D01*
X170541000Y-115189000D01*
X170541000Y-114935000D01*
X170561000Y-114935000D01*
X170561000Y-114915000D01*
X170815000Y-114915000D01*
X170815000Y-114935000D01*
G04 #@! TA.AperFunction,Conductor*
D21*
G36*
X170815000Y-114935000D02*
G01*
X170835000Y-114935000D01*
X170835000Y-115189000D01*
X170815000Y-115189000D01*
X170815000Y-115209000D01*
X170561000Y-115209000D01*
X170561000Y-115189000D01*
X170541000Y-115189000D01*
X170541000Y-114935000D01*
X170561000Y-114935000D01*
X170561000Y-114915000D01*
X170815000Y-114915000D01*
X170815000Y-114935000D01*
G37*
G04 #@! TD.AperFunction*
D20*
X176928147Y-96863426D02*
X176873000Y-97140665D01*
X176873000Y-97423335D01*
X176928147Y-97700574D01*
X177036320Y-97961727D01*
X177193363Y-98196759D01*
X177393241Y-98396637D01*
X177625759Y-98552000D01*
X177393241Y-98707363D01*
X177193363Y-98907241D01*
X177036320Y-99142273D01*
X176928147Y-99403426D01*
X176873000Y-99680665D01*
X176873000Y-99963335D01*
X176928147Y-100240574D01*
X177036320Y-100501727D01*
X177193363Y-100736759D01*
X177393241Y-100936637D01*
X177625759Y-101092000D01*
X177393241Y-101247363D01*
X177193363Y-101447241D01*
X177036320Y-101682273D01*
X176928147Y-101943426D01*
X176873000Y-102220665D01*
X176873000Y-102503335D01*
X176928147Y-102780574D01*
X177036320Y-103041727D01*
X177193363Y-103276759D01*
X177393241Y-103476637D01*
X177625759Y-103632000D01*
X177393241Y-103787363D01*
X177193363Y-103987241D01*
X177036320Y-104222273D01*
X176928147Y-104483426D01*
X176873000Y-104760665D01*
X176873000Y-105043335D01*
X176928147Y-105320574D01*
X177036320Y-105581727D01*
X177193363Y-105816759D01*
X177393241Y-106016637D01*
X177625759Y-106172000D01*
X177393241Y-106327363D01*
X177193363Y-106527241D01*
X177036320Y-106762273D01*
X176928147Y-107023426D01*
X176873000Y-107300665D01*
X176873000Y-107583335D01*
X176928147Y-107860574D01*
X177036320Y-108121727D01*
X177193363Y-108356759D01*
X177193400Y-108356796D01*
X176671997Y-108878200D01*
X176642999Y-108901998D01*
X176619201Y-108930996D01*
X176619200Y-108930997D01*
X176548025Y-109017723D01*
X176477453Y-109149753D01*
X176473269Y-109163547D01*
X176433996Y-109293013D01*
X176422999Y-109404666D01*
X176422999Y-109404677D01*
X176419323Y-109441999D01*
X176422999Y-109479321D01*
X176422999Y-109917201D01*
X171950036Y-114390165D01*
X171919037Y-114324580D01*
X171751519Y-114098586D01*
X171543131Y-113909615D01*
X171357135Y-113798067D01*
X171367727Y-113793680D01*
X171602759Y-113636637D01*
X171802637Y-113436759D01*
X171959680Y-113201727D01*
X172067853Y-112940574D01*
X172123000Y-112663335D01*
X172123000Y-112380665D01*
X172067853Y-112103426D01*
X171959680Y-111842273D01*
X171802637Y-111607241D01*
X171602759Y-111407363D01*
X171370241Y-111252000D01*
X171602759Y-111096637D01*
X171802637Y-110896759D01*
X171959680Y-110661727D01*
X172067853Y-110400574D01*
X172123000Y-110123335D01*
X172123000Y-109840665D01*
X172067853Y-109563426D01*
X171959680Y-109302273D01*
X171802637Y-109067241D01*
X171602759Y-108867363D01*
X171370241Y-108712000D01*
X171602759Y-108556637D01*
X171802637Y-108356759D01*
X171909519Y-108196798D01*
X171968356Y-108191003D01*
X172111617Y-108147546D01*
X172243646Y-108076974D01*
X172359371Y-107982001D01*
X172383174Y-107952997D01*
X175009003Y-105327169D01*
X175038001Y-105303371D01*
X175080949Y-105251039D01*
X175132974Y-105187647D01*
X175203546Y-105055617D01*
X175235584Y-104949999D01*
X175247003Y-104912356D01*
X175258000Y-104800703D01*
X175258000Y-104800693D01*
X175261676Y-104763370D01*
X175258000Y-104726047D01*
X175258000Y-97596801D01*
X176227801Y-96627001D01*
X177026077Y-96627001D01*
X176928147Y-96863426D01*
G04 #@! TA.AperFunction,Conductor*
D21*
G36*
X176928147Y-96863426D02*
G01*
X176873000Y-97140665D01*
X176873000Y-97423335D01*
X176928147Y-97700574D01*
X177036320Y-97961727D01*
X177193363Y-98196759D01*
X177393241Y-98396637D01*
X177625759Y-98552000D01*
X177393241Y-98707363D01*
X177193363Y-98907241D01*
X177036320Y-99142273D01*
X176928147Y-99403426D01*
X176873000Y-99680665D01*
X176873000Y-99963335D01*
X176928147Y-100240574D01*
X177036320Y-100501727D01*
X177193363Y-100736759D01*
X177393241Y-100936637D01*
X177625759Y-101092000D01*
X177393241Y-101247363D01*
X177193363Y-101447241D01*
X177036320Y-101682273D01*
X176928147Y-101943426D01*
X176873000Y-102220665D01*
X176873000Y-102503335D01*
X176928147Y-102780574D01*
X177036320Y-103041727D01*
X177193363Y-103276759D01*
X177393241Y-103476637D01*
X177625759Y-103632000D01*
X177393241Y-103787363D01*
X177193363Y-103987241D01*
X177036320Y-104222273D01*
X176928147Y-104483426D01*
X176873000Y-104760665D01*
X176873000Y-105043335D01*
X176928147Y-105320574D01*
X177036320Y-105581727D01*
X177193363Y-105816759D01*
X177393241Y-106016637D01*
X177625759Y-106172000D01*
X177393241Y-106327363D01*
X177193363Y-106527241D01*
X177036320Y-106762273D01*
X176928147Y-107023426D01*
X176873000Y-107300665D01*
X176873000Y-107583335D01*
X176928147Y-107860574D01*
X177036320Y-108121727D01*
X177193363Y-108356759D01*
X177193400Y-108356796D01*
X176671997Y-108878200D01*
X176642999Y-108901998D01*
X176619201Y-108930996D01*
X176619200Y-108930997D01*
X176548025Y-109017723D01*
X176477453Y-109149753D01*
X176473269Y-109163547D01*
X176433996Y-109293013D01*
X176422999Y-109404666D01*
X176422999Y-109404677D01*
X176419323Y-109441999D01*
X176422999Y-109479321D01*
X176422999Y-109917201D01*
X171950036Y-114390165D01*
X171919037Y-114324580D01*
X171751519Y-114098586D01*
X171543131Y-113909615D01*
X171357135Y-113798067D01*
X171367727Y-113793680D01*
X171602759Y-113636637D01*
X171802637Y-113436759D01*
X171959680Y-113201727D01*
X172067853Y-112940574D01*
X172123000Y-112663335D01*
X172123000Y-112380665D01*
X172067853Y-112103426D01*
X171959680Y-111842273D01*
X171802637Y-111607241D01*
X171602759Y-111407363D01*
X171370241Y-111252000D01*
X171602759Y-111096637D01*
X171802637Y-110896759D01*
X171959680Y-110661727D01*
X172067853Y-110400574D01*
X172123000Y-110123335D01*
X172123000Y-109840665D01*
X172067853Y-109563426D01*
X171959680Y-109302273D01*
X171802637Y-109067241D01*
X171602759Y-108867363D01*
X171370241Y-108712000D01*
X171602759Y-108556637D01*
X171802637Y-108356759D01*
X171909519Y-108196798D01*
X171968356Y-108191003D01*
X172111617Y-108147546D01*
X172243646Y-108076974D01*
X172359371Y-107982001D01*
X172383174Y-107952997D01*
X175009003Y-105327169D01*
X175038001Y-105303371D01*
X175080949Y-105251039D01*
X175132974Y-105187647D01*
X175203546Y-105055617D01*
X175235584Y-104949999D01*
X175247003Y-104912356D01*
X175258000Y-104800703D01*
X175258000Y-104800693D01*
X175261676Y-104763370D01*
X175258000Y-104726047D01*
X175258000Y-97596801D01*
X176227801Y-96627001D01*
X177026077Y-96627001D01*
X176928147Y-96863426D01*
G37*
G04 #@! TD.AperFunction*
D20*
X186421000Y-100363439D02*
X186421000Y-100616561D01*
X186470381Y-100864821D01*
X186567247Y-101098676D01*
X186707875Y-101309140D01*
X186886860Y-101488125D01*
X187097324Y-101628753D01*
X187331179Y-101725619D01*
X187403479Y-101740000D01*
X187331179Y-101754381D01*
X187097324Y-101851247D01*
X186886860Y-101991875D01*
X186707875Y-102170860D01*
X186567247Y-102381324D01*
X186470381Y-102615179D01*
X186421000Y-102863439D01*
X186421000Y-103116561D01*
X186470381Y-103364821D01*
X186567247Y-103598676D01*
X186707875Y-103809140D01*
X186886860Y-103988125D01*
X187097324Y-104128753D01*
X187331179Y-104225619D01*
X187403479Y-104240000D01*
X187331179Y-104254381D01*
X187097324Y-104351247D01*
X186886860Y-104491875D01*
X186707875Y-104670860D01*
X186567247Y-104881324D01*
X186470381Y-105115179D01*
X186421000Y-105363439D01*
X186421000Y-105616561D01*
X186434876Y-105686322D01*
X185166198Y-106955001D01*
X183975867Y-106955001D01*
X183985102Y-106916476D01*
X183994952Y-106663545D01*
X183955270Y-106413551D01*
X183867578Y-106176104D01*
X183820201Y-106087466D01*
X183591527Y-106034078D01*
X182885605Y-106740000D01*
X182899748Y-106754143D01*
X182720143Y-106933748D01*
X182706000Y-106919605D01*
X182691858Y-106933748D01*
X182512253Y-106754143D01*
X182526395Y-106740000D01*
X181820473Y-106034078D01*
X181591799Y-106087466D01*
X181485905Y-106317374D01*
X181426898Y-106563524D01*
X181417048Y-106816455D01*
X181456730Y-107066449D01*
X181544422Y-107303896D01*
X181591799Y-107392534D01*
X181820471Y-107445921D01*
X181703602Y-107562790D01*
X181784504Y-107643692D01*
X181621196Y-107807001D01*
X179698509Y-107807001D01*
X179743000Y-107583335D01*
X179743000Y-107300665D01*
X179687853Y-107023426D01*
X179579680Y-106762273D01*
X179422637Y-106527241D01*
X179222759Y-106327363D01*
X178990241Y-106172000D01*
X179222759Y-106016637D01*
X179422637Y-105816759D01*
X179579680Y-105581727D01*
X179687853Y-105320574D01*
X179743000Y-105043335D01*
X179743000Y-104760665D01*
X179687853Y-104483426D01*
X179660473Y-104417326D01*
X181632086Y-102445714D01*
X181707875Y-102559140D01*
X181886860Y-102738125D01*
X182097324Y-102878753D01*
X182331179Y-102975619D01*
X182403479Y-102990000D01*
X182331179Y-103004381D01*
X182097324Y-103101247D01*
X181886860Y-103241875D01*
X181707875Y-103420860D01*
X181567247Y-103631324D01*
X181470381Y-103865179D01*
X181421000Y-104113439D01*
X181421000Y-104366561D01*
X181470381Y-104614821D01*
X181567247Y-104848676D01*
X181707875Y-105059140D01*
X181886860Y-105238125D01*
X182097324Y-105378753D01*
X182331179Y-105475619D01*
X182394900Y-105488294D01*
X182379551Y-105490730D01*
X182142104Y-105578422D01*
X182053466Y-105625799D01*
X182000078Y-105854473D01*
X182706000Y-106560395D01*
X183411922Y-105854473D01*
X183358534Y-105625799D01*
X183128626Y-105519905D01*
X183005983Y-105490505D01*
X183080821Y-105475619D01*
X183314676Y-105378753D01*
X183525140Y-105238125D01*
X183704125Y-105059140D01*
X183844753Y-104848676D01*
X183941619Y-104614821D01*
X183991000Y-104366561D01*
X183991000Y-104113439D01*
X183941619Y-103865179D01*
X183844753Y-103631324D01*
X183704125Y-103420860D01*
X183525140Y-103241875D01*
X183314676Y-103101247D01*
X183080821Y-103004381D01*
X183008521Y-102990000D01*
X183080821Y-102975619D01*
X183314676Y-102878753D01*
X183525140Y-102738125D01*
X183704125Y-102559140D01*
X183844753Y-102348676D01*
X183941619Y-102114821D01*
X183991000Y-101866561D01*
X183991000Y-101613439D01*
X183941619Y-101365179D01*
X183844753Y-101131324D01*
X183740301Y-100975001D01*
X185443677Y-100975001D01*
X185480999Y-100978677D01*
X185518321Y-100975001D01*
X185518332Y-100975001D01*
X185629985Y-100964004D01*
X185773246Y-100920547D01*
X185905275Y-100849975D01*
X186021000Y-100755002D01*
X186044803Y-100725998D01*
X186424386Y-100346415D01*
X186421000Y-100363439D01*
G04 #@! TA.AperFunction,Conductor*
D21*
G36*
X186421000Y-100363439D02*
G01*
X186421000Y-100616561D01*
X186470381Y-100864821D01*
X186567247Y-101098676D01*
X186707875Y-101309140D01*
X186886860Y-101488125D01*
X187097324Y-101628753D01*
X187331179Y-101725619D01*
X187403479Y-101740000D01*
X187331179Y-101754381D01*
X187097324Y-101851247D01*
X186886860Y-101991875D01*
X186707875Y-102170860D01*
X186567247Y-102381324D01*
X186470381Y-102615179D01*
X186421000Y-102863439D01*
X186421000Y-103116561D01*
X186470381Y-103364821D01*
X186567247Y-103598676D01*
X186707875Y-103809140D01*
X186886860Y-103988125D01*
X187097324Y-104128753D01*
X187331179Y-104225619D01*
X187403479Y-104240000D01*
X187331179Y-104254381D01*
X187097324Y-104351247D01*
X186886860Y-104491875D01*
X186707875Y-104670860D01*
X186567247Y-104881324D01*
X186470381Y-105115179D01*
X186421000Y-105363439D01*
X186421000Y-105616561D01*
X186434876Y-105686322D01*
X185166198Y-106955001D01*
X183975867Y-106955001D01*
X183985102Y-106916476D01*
X183994952Y-106663545D01*
X183955270Y-106413551D01*
X183867578Y-106176104D01*
X183820201Y-106087466D01*
X183591527Y-106034078D01*
X182885605Y-106740000D01*
X182899748Y-106754143D01*
X182720143Y-106933748D01*
X182706000Y-106919605D01*
X182691858Y-106933748D01*
X182512253Y-106754143D01*
X182526395Y-106740000D01*
X181820473Y-106034078D01*
X181591799Y-106087466D01*
X181485905Y-106317374D01*
X181426898Y-106563524D01*
X181417048Y-106816455D01*
X181456730Y-107066449D01*
X181544422Y-107303896D01*
X181591799Y-107392534D01*
X181820471Y-107445921D01*
X181703602Y-107562790D01*
X181784504Y-107643692D01*
X181621196Y-107807001D01*
X179698509Y-107807001D01*
X179743000Y-107583335D01*
X179743000Y-107300665D01*
X179687853Y-107023426D01*
X179579680Y-106762273D01*
X179422637Y-106527241D01*
X179222759Y-106327363D01*
X178990241Y-106172000D01*
X179222759Y-106016637D01*
X179422637Y-105816759D01*
X179579680Y-105581727D01*
X179687853Y-105320574D01*
X179743000Y-105043335D01*
X179743000Y-104760665D01*
X179687853Y-104483426D01*
X179660473Y-104417326D01*
X181632086Y-102445714D01*
X181707875Y-102559140D01*
X181886860Y-102738125D01*
X182097324Y-102878753D01*
X182331179Y-102975619D01*
X182403479Y-102990000D01*
X182331179Y-103004381D01*
X182097324Y-103101247D01*
X181886860Y-103241875D01*
X181707875Y-103420860D01*
X181567247Y-103631324D01*
X181470381Y-103865179D01*
X181421000Y-104113439D01*
X181421000Y-104366561D01*
X181470381Y-104614821D01*
X181567247Y-104848676D01*
X181707875Y-105059140D01*
X181886860Y-105238125D01*
X182097324Y-105378753D01*
X182331179Y-105475619D01*
X182394900Y-105488294D01*
X182379551Y-105490730D01*
X182142104Y-105578422D01*
X182053466Y-105625799D01*
X182000078Y-105854473D01*
X182706000Y-106560395D01*
X183411922Y-105854473D01*
X183358534Y-105625799D01*
X183128626Y-105519905D01*
X183005983Y-105490505D01*
X183080821Y-105475619D01*
X183314676Y-105378753D01*
X183525140Y-105238125D01*
X183704125Y-105059140D01*
X183844753Y-104848676D01*
X183941619Y-104614821D01*
X183991000Y-104366561D01*
X183991000Y-104113439D01*
X183941619Y-103865179D01*
X183844753Y-103631324D01*
X183704125Y-103420860D01*
X183525140Y-103241875D01*
X183314676Y-103101247D01*
X183080821Y-103004381D01*
X183008521Y-102990000D01*
X183080821Y-102975619D01*
X183314676Y-102878753D01*
X183525140Y-102738125D01*
X183704125Y-102559140D01*
X183844753Y-102348676D01*
X183941619Y-102114821D01*
X183991000Y-101866561D01*
X183991000Y-101613439D01*
X183941619Y-101365179D01*
X183844753Y-101131324D01*
X183740301Y-100975001D01*
X185443677Y-100975001D01*
X185480999Y-100978677D01*
X185518321Y-100975001D01*
X185518332Y-100975001D01*
X185629985Y-100964004D01*
X185773246Y-100920547D01*
X185905275Y-100849975D01*
X186021000Y-100755002D01*
X186044803Y-100725998D01*
X186424386Y-100346415D01*
X186421000Y-100363439D01*
G37*
G04 #@! TD.AperFunction*
M02*
