M48
; DRILL file {KiCad (5.1.10)-1} date 07/09/21 21:47:49
; FORMAT={-:-/ absolute / inch / decimal}
; #@! TF.CreationDate,2021-07-09T21:47:49+10:00
; #@! TF.GenerationSoftware,Kicad,Pcbnew,(5.1.10)-1
FMAT,2
INCH
T1C0.0315
T2C0.0315
T3C0.0394
T4C0.0402
T5C0.0591
T6C0.0709
T7C0.1260
%
G90
G05
T1
X6.65Y-3.34
X6.65Y-3.52
X6.72Y-3.73
X6.72Y-3.83
X6.72Y-3.93
X6.72Y-4.03
X6.72Y-4.13
X6.72Y-4.23
X6.72Y-4.33
X6.72Y-4.43
X6.72Y-4.53
X7.02Y-3.73
X7.02Y-3.83
X7.02Y-3.93
X7.02Y-4.03
X7.02Y-4.13
X7.02Y-4.23
X7.02Y-4.33
X7.02Y-4.43
X7.02Y-4.53
X7.05Y-3.34
X7.05Y-3.52
T2
X7.1931Y-2.9228
X7.1931Y-3.0213
X7.1931Y-3.1197
X7.1931Y-3.2181
X7.1931Y-3.3165
X7.1931Y-3.415
X7.1931Y-3.5134
X7.1931Y-3.6118
X7.1931Y-3.7102
X7.1931Y-3.8087
X7.1931Y-3.9071
X7.1931Y-4.0055
X7.1931Y-4.1039
X7.1931Y-4.2024
X7.1931Y-4.3008
X7.39Y-2.972
X7.39Y-3.0705
X7.39Y-3.1689
X7.39Y-3.2673
X7.39Y-3.3657
X7.39Y-3.4642
X7.39Y-3.5626
X7.39Y-3.661
X7.39Y-3.7594
X7.39Y-3.8579
X7.39Y-3.9563
X7.39Y-4.0547
X7.39Y-4.1531
X7.39Y-4.2516
X7.39Y-4.35
T3
X6.7Y-3.14
X6.8Y-3.14
X6.9Y-3.14
X7.0Y-3.14
T4
X5.65Y-2.5977
X5.65Y-2.6977
X5.65Y-2.7977
X5.65Y-2.8977
X5.65Y-2.9977
X5.65Y-3.0977
X5.65Y-3.1977
X5.65Y-3.2977
X5.65Y-3.3977
X5.65Y-3.4977
X5.65Y-3.5977
X5.65Y-3.6977
X5.65Y-3.7977
X5.65Y-3.8977
X5.65Y-3.9977
X5.65Y-4.0977
X5.65Y-4.1977
X5.65Y-4.2977
X5.65Y-4.3977
X5.65Y-4.4977
X5.9Y-4.4886
X6.0Y-4.4886
X6.1Y-4.4886
X6.35Y-2.5977
X6.35Y-2.6977
X6.35Y-2.7977
X6.35Y-2.8977
X6.35Y-2.9977
X6.35Y-3.0977
X6.35Y-3.1977
X6.35Y-3.2977
X6.35Y-3.3977
X6.35Y-3.4977
X6.35Y-3.5977
X6.35Y-3.6977
X6.35Y-3.7977
X6.35Y-3.8977
X6.35Y-3.9977
X6.35Y-4.0977
X6.35Y-4.1977
X6.35Y-4.2977
X6.35Y-4.3977
X6.35Y-4.4977
T5
X5.9045Y-2.7221
X6.0955Y-2.7221
T6
X5.8927Y-2.6028
X6.1073Y-2.6028
T7
X5.37Y-2.7
X5.37Y-4.59
X7.31Y-2.7
X7.31Y-4.58
T0
M30
